<?xml version="1.0" encoding="UTF-8" standalone="no"?>
<!-- Created with Inkscape (http://www.inkscape.org/) -->

<svg
   xmlns:dc="http://purl.org/dc/elements/1.1/"
   xmlns:cc="http://creativecommons.org/ns#"
   xmlns:rdf="http://www.w3.org/1999/02/22-rdf-syntax-ns#"
   xmlns:svg="http://www.w3.org/2000/svg"
   xmlns="http://www.w3.org/2000/svg"
   version="1.1"
   width="1300.0009"
   height="368.72525"
   id="svg3128">
  <defs
     id="defs3130" />
  <metadata
     id="metadata3133">
    <rdf:RDF>
      <cc:Work
         rdf:about="">
        <dc:format>image/svg+xml</dc:format>
        <dc:type
           rdf:resource="http://purl.org/dc/dcmitype/StillImage" />
        <dc:title></dc:title>
      </cc:Work>
    </rdf:RDF>
  </metadata>
  <g
     transform="translate(363.37346,-144.23176)"
     id="layer1">
    <path
       d="m 223.47741,197.111 c 0.2072,-0.20718 0.7448,-0.22925 1.1949,-0.0492 0.4973,0.19887 0.3496,0.34672 -0.3767,0.37664 -0.6571,0.0256 -1.0254,-0.12022 -0.8182,-0.32743 z m -505.29472,61.0589 c 0.4286,-0.17297 1.12995,-0.17297 1.55855,0 0.42859,0.17298 0.0777,0.31462 -0.77928,0.31462 -0.85719,0 -1.20787,-0.14164 -0.77927,-0.31462 z m -2.33782,-0.2107 c 0,-0.34288 0.12373,-0.62344 0.27496,-0.62344 0.15124,0 0.44833,0.2804 0.66021,0.62344 0.21198,0.34288 0.0883,0.62341 -0.27496,0.62341 -0.36312,0 -0.66021,-0.2804 -0.66021,-0.62341 z m 6.06646,0.83788 c 0.42208,-0.17073 1.2637,-0.18128 1.87025,-0.0224 0.60659,0.15795 0.26122,0.29767 -0.76741,0.31046 -1.02863,0.0128 -1.52488,-0.1167 -1.10284,-0.28744 z m 8.44103,0.6557 c 0.20718,-0.20718 0.74487,-0.22924 1.19489,-0.0492 0.4973,0.19887 0.34962,0.34675 -0.37664,0.37664 -0.65721,0.0256 -1.02541,-0.12022 -0.81825,-0.32743 z M 859.82021,435.01037 c 0,-0.34287 0.2814,-0.6234 0.6235,-0.6234 0.3427,0 0.6231,0.2804 0.6231,0.6234 0,0.34288 -0.2813,0.62341 -0.6231,0.62341 -0.3431,0 -0.6235,-0.2804 -0.6235,-0.62341 z m -3.117,0.60506 c 0,-0.89275 0.9444,-1.17785 1.8998,-0.57344 0.4981,0.31494 0.7651,0.59847 0.5937,0.62997 -0.1726,0.032 -0.8025,0.15123 -1.4026,0.26601 -0.6001,0.11478 -1.0909,-0.032 -1.0909,-0.32261 z m -4.364,3.77845 c 0,-0.33213 0.4208,-0.44237 0.9349,-0.24491 0.5144,0.19727 0.9352,0.46907 0.9352,0.60387 0,0.13461 -0.4208,0.24491 -0.9352,0.24491 -0.5141,0 -0.9349,-0.27177 -0.9349,-0.60387 z m 2.1818,4.34438 c -1.0164,-0.43678 -1.0519,-0.54386 -0.1918,-0.57961 0.5797,-0.0224 1.2277,0.2366 1.4394,0.57961 0.4431,0.71686 0.4214,0.71686 -1.2466,0 z m -5.0514,-0.10391 c -0.1758,-0.28584 0.099,-0.5195 0.6139,-0.5195 0.5145,0 1.0797,0.23372 1.2562,0.5195 0.1759,0.28583 -0.099,0.51955 -0.6142,0.51955 -0.5141,0 -1.0794,-0.23372 -1.2559,-0.51955 z m -1045.79299,9.8084 c -0.13269,-0.12821 -8.09636,-0.41884 -17.69704,-0.64569 -9.60068,-0.22701 -18.71818,-0.5208 -20.26113,-0.65324 -1.54298,-0.13236 -6.59267,-0.41168 -11.22154,-0.62059 -4.6289,-0.2091 -8.97267,-0.54274 -9.6528,-0.7418 -2.52748,-0.73989 1.09284,-1.31831 4.683,-0.74823 1.87617,0.29799 9.72336,0.71354 17.43819,0.9237 17.54855,0.47799 19.58772,0.58871 20.43007,1.10933 0.37399,0.23116 0.83472,0.17009 1.02368,-0.13589 0.31333,-0.50715 4.88654,-0.45075 11.27577,0.13908 1.37154,0.12662 4.71462,0.26762 7.42911,0.31334 2.71443,0.0457 4.81847,0.18416 4.67565,0.30758 -0.38572,0.33328 -7.84205,1.0237 -8.12296,0.75216 z m 43.39812,0.27017 c -0.21198,-0.34287 0.0518,-0.6234 0.58661,-0.6234 0.53452,0 0.97191,0.2804 0.97191,0.6234 0,0.34288 -0.2641,0.62341 -0.58664,0.62341 -0.32261,0 -0.75999,-0.2804 -0.97188,-0.62341 z m -12.15042,0.0499 c -2.33302,-0.62376 -0.73189,-1.13974 2.7991,-0.90195 1.71442,0.11542 4.19867,0.23116 5.52062,0.25738 1.32198,0.0256 2.25393,0.19695 2.07095,0.38009 -0.51994,0.52001 -8.66017,0.72716 -10.39067,0.26442 z m -10.15595,0.19152 c -0.0751,-0.0748 -2.31918,-0.26154 -4.98658,-0.41488 -2.66737,-0.15347 -5.02987,-0.45897 -5.24988,-0.67904 -0.21997,-0.21997 2.94422,-0.23308 7.03173,-0.0288 4.08757,0.20399 7.51643,0.45341 7.61973,0.55428 0.10328,0.10104 -0.81703,0.30087 -2.04517,0.44411 -1.22814,0.14356 -2.29456,0.19951 -2.36983,0.12469 z m 32.59277,0.3541 c -4.6289,-0.18672 -7.57452,-0.4404 -6.54589,-0.56378 3.70347,-0.44429 20.34093,-0.36762 21.07196,0.0972 0.53967,0.34303 0.48752,0.49938 -0.18736,0.56176 -2.597,0.24044 -6.70046,0.21294 -14.33864,-0.095 z m 23.37826,0.66762 c -4.11455,-0.18032 -7.14452,-0.54635 -6.73319,-0.81313 0.41133,-0.26665 1.81404,-0.4543 3.1171,-0.41683 1.30308,0.0374 5.68704,0.0224 9.74199,-0.0393 4.05503,-0.0585 7.5384,0.0585 7.74082,0.2609 1.23892,1.23885 -2.46398,1.50803 -13.86672,1.00788 z M -252.36072,267.89681 c 0,-0.36311 -0.28041,-0.48682 -0.62341,-0.27497 -0.34291,0.21198 -0.62344,0.50901 -0.62344,0.66021 0,0.15123 0.2804,0.27497 0.62344,0.27497 0.34284,0 0.62341,-0.29703 0.62341,-0.66024 z m 1100.00123,1.20263 c 0.5071,-0.50712 -3.2504,-1.14358 -5.2762,-0.89374 -2.7385,0.33773 -2.8555,0.50664 -0.6235,0.90096 2.8057,0.49568 5.3999,0.49251 5.8997,-0.006 z m -1139.61614,14.46458 c 0.19664,-0.31813 -0.22892,-0.76466 -0.94531,-0.99206 -1.48002,-0.46974 -2.15276,-0.0758 -1.54627,0.90567 0.50581,0.81841 2.007,0.87043 2.49158,0.0863 z m 17.44314,13.60502 c -0.18992,-0.30694 -1.24013,-0.54814 -2.33427,-0.53602 l -1.98929,0.0224 1.52712,0.84574 c 1.57556,0.87254 3.40648,0.65529 2.79644,-0.33181 z m 10.32678,103.55298 c 0,-0.34288 -0.77147,-0.61912 -1.71438,-0.61388 -1.33598,0.006 -1.508,0.14292 -0.77931,0.61388 1.21977,0.78826 2.49369,0.78826 2.49369,0 z m -5.29908,8.78163 c 1.05904,-0.24044 -1.76727,-1.21046 -3.66099,-1.25676 -1.43555,-0.0352 -1.6521,0.1231 -1.09177,0.79836 0.60499,0.72895 2.67823,0.92894 4.75276,0.4584 z m 1100.372,24.94157 c -0.1918,-0.31078 -0.91,-0.41824 -1.5951,-0.23884 -1.7154,0.44861 -1.5613,0.8039 0.3488,0.8039 0.8776,0 1.4384,-0.25419 1.2463,-0.5649 z m -4.5948,0.13908 c -0.4502,-0.18 -0.9877,-0.15794 -1.1949,0.0492 -0.2078,0.20718 0.1599,0.35452 0.8182,0.32747 0.7261,-0.0288 0.8738,-0.17777 0.3767,-0.37668 z m -2.2627,-0.13908 c -0.1919,-0.31078 -0.91,-0.41824 -1.5955,-0.23884 -1.7153,0.44861 -1.5609,0.8039 0.3491,0.8039 0.8777,0 1.4385,-0.25419 1.2464,-0.5649 z m 2.9251,3.8925 c -0.4287,-0.17297 -1.1299,-0.17297 -1.5586,0 -0.4288,0.17298 -0.077,0.31462 0.7791,0.31462 0.8572,0 1.208,-0.14164 0.7795,-0.31462 z m -439.9786,18.49208 c -0.2119,-0.34288 -0.7895,-0.62344 -1.2836,-0.62344 -0.4941,0 -0.8983,0.2804 -0.8983,0.62344 0,0.34287 0.5776,0.6234 1.2836,0.6234 0.706,0 1.1102,-0.2804 0.8983,-0.6234 z m -136.2172,2.37609 c 107.6303,0.92571 127.812,0.67098 131.9879,-1.66598 0.8884,-0.49717 0.6755,-0.67709 -1.2228,-1.03317 -2.2126,-0.41516 -35.5581,0.0192 -50.3439,0.65295 -8.1733,0.35132 -54.8556,0.38748 -70.7582,0.055 -26.647,-0.55752 -31.0909,-0.49044 -33.4661,0.50491 -3.354,1.4055 -3.8201,2.54469 -0.7562,1.84813 1.3353,-0.30343 12.3871,-0.46633 24.5593,-0.36158 z m 98.4904,3.64065 c -0.166,-0.16594 -24.1476,-0.48634 -53.2924,-0.71226 -50.5538,-0.39182 -58.6898,-0.50398 -92.5779,-1.27584 -8.0577,-0.18352 -20.6819,-0.4552 -28.0539,-0.60384 -7.3719,-0.14867 -19.2948,-0.438 -26.4953,-0.64323 -14.5339,-0.41421 -14.4575,-0.41255 -16.2089,-0.35148 -2.0416,0.071 -87.820396,-0.52314 -88.837296,-0.61538 -0.5144,-0.047 -2.8989,-0.032 -5.2991,0.0345 -2.4002,0.0652 -8.2915,-0.0326 -13.0918,-0.21709 -4.8003,-0.18481 -17.2842997,-0.48801 -27.7421997,-0.67354 -18.2369003,-0.32357 -27.3827703,-0.52557 -61.0951303,-1.34964 -21.88954,-0.53504 -36.35236,-0.86992 -37.229764,-0.86215 -0.42342,0.006 -0.5993,-0.4112 -0.39736,-0.93757 0.27784,-0.72403 1.03678,-0.87001 3.253434,-0.6259 2.95163,0.32507 26.72444,0.4575 30.58036,0.17041 2.40398,-0.17904 3.19096,-1.34279 1.49339,-2.2082 -0.62091,-0.31653 -7.16048,-0.64828 -14.53242,-0.73739 -7.37192,-0.0889 -15.22704,-0.24747 -17.45574,-0.35247 -2.22873,-0.10487 -11.907334,-0.35167 -21.507984,-0.54862 -9.60068,-0.19695 -19.5598,-0.49788 -22.13141,-0.66887 -2.57161,-0.17106 -11.26832,-0.47518 -19.32602,-0.67591 -8.05767,-0.20079 -15.49197,-0.48372 -16.52063,-0.62871 -1.02863,-0.14484 -5.65753,-0.38553 -10.28643,-0.53453 -11.6182,-0.37392 -22.77951,-0.91448 -26.49533,-1.28323 -4.17699,-0.41459 -16.3677,-1.14613 -18.70258,-1.12234 -1.02866,0.01 -3.97429,-0.21614 -6.54593,-0.50367 -2.57158,-0.28743 -7.76154,-0.68479 -11.53325,-0.8829 -3.77167,-0.19823 -7.55898,-0.47361 -8.41618,-0.61221 -0.85719,-0.13876 -3.62031,-0.41175 -6.14025,-0.60694 -3.21906,-0.24939 -5.40425,-0.81413 -7.34733,-1.89893 -1.52105,-0.84924 -3.58841,-1.54404 -4.59415,-1.54404 -1.41227,0 -1.7423,-0.22509 -1.44965,-0.98738 0.20846,-0.54313 0.55025,-0.75351 0.75971,-0.46754 0.20942,0.28584 2.62513,0.52272 5.36814,0.52627 2.74305,0.006 8.56425,0.21198 12.93596,0.463 5.04605,0.28999 7.94861,0.23532 7.94861,-0.14963 0,-0.8407 -4.4393,-2.99647 -5.74318,-2.78893 -0.58712,0.0934 -2.41063,-0.19951 -4.05221,-0.65084 l -2.9847,-0.82081 2.18196,-0.13908 c 1.96179,-0.12501 1.86744,-0.188 -0.93511,-0.62452 -1.71442,-0.26698 -4.7536,-0.5101 -6.75372,-0.54015 -2.61247,-0.0393 -3.56434,-0.27401 -3.37998,-0.83389 0.141,-0.42859 0.936,-0.86317 1.76634,-0.96567 0.83037,-0.10264 1.93052,-0.35746 2.44487,-0.56656 0.51431,-0.2091 1.17506,-0.32574 1.46832,-0.2593 0.29319,0.0665 0.91915,-0.19951 1.39091,-0.59102 0.79453,-0.65938 3.58067,-0.52423 8.36231,0.4058 3.44472,0.66999 21.19627,0.8994 21.19627,0.27401 0,-0.34931 -1.052,-0.67153 -2.33782,-0.7162 -2.82435,-0.0978 -4.08699,-0.19151 -10.13057,-0.75043 -2.5716,-0.23788 -6.63941,-0.56822 -9.03958,-0.7341 -6.69131,-0.46252 -15.5038,-1.7061 -16.29238,-2.29916 -0.38879,-0.29256 -1.7915,-0.56343 -3.11709,-0.60234 -3.09859,-0.0908 -4.5922,-0.87558 -4.5922,-2.41238 0,-0.82231 0.42329,-1.22488 1.28783,-1.22488 1.91272,0 3.69936,-1.1453 3.32176,-2.12936 -0.18225,-0.47493 0.0387,-0.84725 0.49075,-0.82743 0.45219,0.0224 1.9443,-0.0224 3.31584,-0.0953 2.33888,-0.12341 2.18407,-0.22221 -2.49369,-1.58978 -2.74305,-0.80217 -5.90593,-1.65265 -7.02866,-1.88998 -1.4296,-0.30215 -1.99005,-0.74261 -1.87025,-1.46967 0.0956,-0.57925 -0.18512,-0.96529 -0.63491,-0.87334 -0.5978,0.12214 -0.64685,-0.13236 -0.18992,-0.98639 1.15435,-2.15692 2.41443,-2.70705 5.79022,-2.52787 2.53055,0.13429 3.34592,-0.0425 3.48309,-0.75456 0.19215,-0.99704 -2.88565,-2.39493 -5.51631,-2.50549 -1.32623,-0.0556 -1.26267,-0.14451 0.51182,-0.7136 2.1857,-0.70116 2.38172,-1.13392 1.37001,-3.02434 -0.58623,-1.09536 -0.49386,-1.18521 0.8671,-0.84361 0.8397,0.2107 1.71016,0.0799 1.93976,-0.29159 0.23276,-0.37642 2.53311,-0.70836 5.21122,-0.75194 4.33101,-0.0707 4.52336,-0.12277 1.98932,-0.54277 -1.54298,-0.25578 -4.97958,-0.36967 -7.63691,-0.25354 -2.845,0.12437 -4.83148,-0.0371 -4.83148,-0.39241 0,-0.33197 -0.68479,-0.60358 -1.52178,-0.60358 -0.83695,0 -1.69513,-0.2804 -1.90702,-0.62341 -0.21198,-0.34287 0.12214,-0.63024 0.74248,-0.63859 2.02672,-0.0288 12.92684,-0.44356 14.84301,-0.56691 1.86945,-0.12022 1.86958,-0.12054 0.33552,-0.73304 -0.84411,-0.33696 -2.52736,-0.71101 -3.74053,-0.8312 -5.41368,-0.53641 -7.67544,-1.17676 -7.95686,-2.25287 -0.15763,-0.60298 -0.82183,-1.23626 -1.47587,-1.40729 -1.3232,-0.34604 -1.6286,-1.63972 -0.40992,-1.73638 0.42859,-0.0342 3.72493,-0.0476 7.32517,-0.0288 9.2703,0.0448 15.40506,-0.54571 13.976,-1.34541 -1.20259,-0.67306 -2.03606,-0.80639 -10.5472,-1.68759 -6.30131,-0.65244 -11.26206,-1.64152 -9.35129,-1.86453 0.68575,-0.0799 1.52737,-0.11031 1.87025,-0.0675 0.34291,0.0428 -0.34787,-0.7654 -1.53499,-1.79643 -1.18715,-1.03125 -2.56646,-1.87482 -3.06514,-1.87482 -0.49871,0 -0.72217,-0.18449 -0.49654,-0.41022 0.22573,-0.22572 0.0978,-0.78666 -0.28423,-1.24681 -0.38189,-0.46015 -0.50383,-0.83663 -0.27081,-0.83663 0.23308,0 -0.0128,-0.6235 -0.54709,-1.38555 -1.45119,-2.0719 -1.20103,-2.97839 0.82186,-2.97839 2.66574,0 5.68871,-0.70398 5.68871,-1.32477 0,-0.2999 -0.40424,-0.54552 -0.89835,-0.54552 -1.71432,0 -1.66105,-1.25269 0.0815,-1.91799 1.6899,-0.64514 1.70908,-0.70026 0.54178,-1.55736 -0.66557,-0.48871 -1.5446,-0.88856 -1.95341,-0.88856 -0.40877,0 -0.88021,-0.52365 -1.04756,-1.16362 -0.20654,-0.78989 -1.48136,-1.50733 -3.96911,-2.23375 -2.0156,-0.58862 -4.15189,-1.32742 -4.74729,-1.64181 -0.5954,-0.31429 -1.85782,-0.57589 -2.8054,-0.58113 -0.94758,-0.006 -2.13578,-0.27081 -2.64051,-0.5899 -0.78941,-0.49923 -0.77137,-0.63649 0.12885,-0.98199 1.53109,-0.5875 0.75677,-3.70664 -1.79482,-7.22998 -1.15067,-1.58893 -2.09215,-3.25008 -2.09215,-3.69143 0,-0.44142 -0.44829,-1.29787 -0.99618,-1.90331 -1.15191,-1.27281 -0.58619,-2.68834 0.85355,-2.13585 0.53791,0.20654 1.17478,0.0569 1.41515,-0.33191 0.32427,-0.52468 1.32905,-0.5076 3.89273,0.0662 3.51119,0.78576 5.82747,0.49484 5.1239,-0.64358 -0.21358,-0.34528 -1.0027,-0.64755 -1.75393,-0.67162 -1.27083,-0.0409 -1.28202,-0.0767 -0.1605,-0.51589 1.51381,-0.5928 0.95429,-0.89309 -3.63893,-1.95312 -3.71809,-0.85802 -6.39722,-2.72188 -7.78676,-5.41719 l -0.71357,-1.38411 5.1552,0.39506 c 4.75948,0.36471 5.08954,0.31557 4.29958,-0.64205 -0.72521,-0.87896 -0.72521,-1.04797 0,-1.10894 0.47058,-0.0396 1.13616,-0.13717 1.47903,-0.21678 0.34288,-0.0796 1.11435,-0.18736 1.71439,-0.2398 2.44979,-0.21325 0.26697,-1.85333 -3.89634,-2.92759 -0.17169,-0.0441 -0.87283,-0.29351 -1.55858,-0.55396 -0.68575,-0.26026 -1.59749,-0.57807 -2.02612,-0.70587 -0.4286,-0.12789 -0.77927,-0.77147 -0.77927,-1.43046 0,-1.14351 0.14931,-1.15729 3.27296,-0.30247 1.80014,0.49264 3.69376,1.11272 4.20807,1.37794 1.12698,0.58111 4.05224,-0.048 4.05224,-0.87126 0,-0.32274 -0.56109,-0.69202 -1.24684,-0.82065 -0.68576,-0.12853 -1.44351,-0.57401 -1.68388,-0.98969 -0.24044,-0.41568 -1.64309,-1.1198 -3.1171,-1.56473 -5.5777,-1.6836 -5.87872,-1.87783 -2.36836,-1.52827 1.88586,0.18768 4.55099,0.59393 5.92253,0.90253 1.3715,0.30854 4.31716,0.57225 6.54589,0.5859 2.75043,0.0192 3.75742,0.21102 3.13459,0.60512 -0.80796,0.51091 -0.80796,0.61213 0,0.84662 1.52283,0.44196 8.34504,1.66013 11.26832,2.01209 1.50761,0.18128 4.56463,0.59405 6.79333,0.91682 5.79866,0.83973 12.83419,1.43187 12.46842,1.04941 -0.32315,-0.33792 -8.87425,-2.2269 -12.15665,-2.68543 -1.02863,-0.14387 -2.71187,-0.42178 -3.74054,-0.61794 -1.0286,-0.19599 -3.79981,-0.58481 -6.15819,-0.86368 -2.35835,-0.2788 -4.46242,-0.76544 -4.67565,-1.0813 -0.21326,-0.3159 -2.49174,-0.93812 -5.06335,-1.3828 -2.5716,-0.44471 -5.06942,-1.12656 -5.55074,-1.51526 -0.48129,-0.38872 -0.90211,-0.60009 -0.93511,-0.46974 -0.11702,0.46108 -5.35782,-0.66568 -5.70437,-1.22638 -0.19344,-0.31302 -0.84581,-0.56918 -1.44968,-0.56918 -0.60387,0 -1.89187,-0.99573 -2.86218,-2.21275 -0.97034,-1.21701 -2.13393,-2.07088 -2.58583,-1.89749 -0.45184,0.17329 -0.96843,0.0777 -1.14789,-0.21262 -0.50879,-0.82321 2.75689,-2.67734 3.9214,-2.22646 1.19969,0.4645 16.70789,1.97486 20.25324,1.97247 3.53411,-0.002 1.53172,-0.86883 -6.80782,-2.94585 -6.07948,-1.51414 -9.82373,-2.19686 -13.18407,-2.40388 -1.04798,-0.0646 -0.9926,-2.21201 0.0799,-3.1022 0.575,-0.47723 1.35859,-0.52333 2.36849,-0.1394 2.59936,0.98828 9.864,1.5572 9.864,0.77246 0,-0.38281 -0.91173,-0.73873 -2.02608,-0.79097 -1.11439,-0.0524 -2.30669,-0.16019 -2.64953,-0.2398 -0.34291,-0.0796 -1.39494,-0.17745 -2.33786,-0.21678 -0.94291,-0.0396 -1.71438,-0.42894 -1.71438,-0.86528 0,-0.78666 -5.26986,-2.32372 -7.96687,-2.32372 -0.80021,0 -1.38445,-0.38537 -1.38445,-0.91321 0,-0.50226 -0.56106,-1.21346 -1.24682,-1.58048 -0.68578,-0.36698 -1.24687,-0.48279 -1.24687,-0.25706 0,0.22541 -0.4208,0.0608 -0.93511,-0.36612 -1.99607,-1.65661 -0.94547,-2.00345 4.71225,-1.55564 4.96718,0.39314 5.743,0.31621 6.441,-0.63834 1.04781,-1.43299 4.86316,-2.00697 9.10791,-1.37016 8.11196,1.21698 9.67048,1.27111 8.87115,0.30789 -0.41117,-0.49545 -1.38311,-0.84542 -2.15986,-0.77767 -0.77671,0.0678 -1.6928,-0.0847 -2.03564,-0.33831 -0.34291,-0.25386 -2.30669,-0.65173 -4.36395,-0.88443 -5.61462,-0.63495 -9.66302,-2.09003 -9.66302,-3.47308 0,-0.77499 -0.76009,-1.39786 -2.33783,-1.91566 -1.28578,-0.42201 -2.68885,-1.26315 -3.11786,-1.86926 -0.42901,-0.60607 -1.62131,-1.28671 -2.64956,-1.51254 -1.16704,-0.25642 -1.86948,-0.80191 -1.86952,-1.45207 -6e-5,-0.90973 0.60231,-1.00139 4.7629,-0.72483 3.13833,0.20846 5.10505,0.0665 5.76573,-0.41661 0.5515,-0.40324 0.86292,-0.84712 0.69199,-0.98633 -0.45398,-0.36986 -9.74756,-2.22854 -13.55837,-2.71165 -4.85927,-0.61598 -3.96595,-1.60273 1.31149,-1.44865 2.52144,0.0735 4.90604,-0.0649 5.29905,-0.3079 1.31498,-0.81269 0.81135,-3.942 -0.84392,-5.24403 -0.85719,-0.67427 -1.55865,-1.32588 -1.55881,-1.44795 -1.2e-4,-0.12214 3.37263,0.0288 7.49502,0.33552 4.12235,0.30662 7.69126,0.36152 7.9308,0.12214 0.75983,-0.7599 -1.30632,-1.59519 -3.97023,-1.60507 -3.74121,-0.0128 -6.46798,-0.67498 -6.46798,-1.56817 0,-0.4286 -0.91174,-1.22879 -2.02612,-1.77814 -1.94632,-0.95944 -1.96473,-1.00216 -0.46757,-1.08491 0.85722,-0.0473 1.83911,-0.15123 2.18199,-0.23084 0.34291,-0.0796 1.18449,-0.19184 1.87028,-0.24939 1.04116,-0.0873 1.09258,-0.20398 0.31174,-0.7088 -0.76591,-0.49498 -0.69673,-0.60605 0.38245,-0.61391 0.72467,-0.006 2.68844,0.25002 4.36395,0.56707 4.75951,0.90086 13.16881,0.88833 14.90229,-0.0224 0.3368,-0.17713 6.00204,-0.3958 12.58934,-0.48631 6.58727,-0.0905 13.29687,-0.35343 14.91022,-0.58421 3.49367,-0.49973 4.50024,-1.96547 1.37457,-2.00156 -4.35831,-0.0502 -11.5178,-0.64119 -13.61135,-1.12334 -1.28221,-0.29543 5.27306,-0.51661 15.89722,-0.53676 26.27398,-0.0499 34.5998,-0.23212 34.5998,-0.75836 0,-0.25674 -0.35068,-0.48586 -0.77927,-0.50914 -0.42863,-0.0224 -2.60278,-0.2123 -4.83152,-0.42044 -2.22873,-0.20814 -7.71207,-0.49283 -12.1852,-0.63293 -8.62151,-0.26986 -12.54813,-0.77224 -13.10698,-1.67647 -0.188,-0.30406 -1.02639,-0.55278 -1.86335,-0.55278 -1.04979,0 -1.52178,-0.34802 -1.52178,-1.12215 0,-0.61717 -0.3345,-1.45665 -0.74337,-1.86552 -0.57551,-0.57551 -0.19183,-0.70922 1.69936,-0.59223 1.74815,0.10807 2.44698,-0.0978 2.45775,-0.72457 0.006,-0.48164 0.47135,-0.94269 1.02899,-1.02454 4.65153,-0.68271 4.93318,-2.65803 0.32024,-2.246 -0.7506,0.0671 -1.04353,-0.19855 -0.83063,-0.75353 0.3159,-0.82282 -1.56942,-1.64648 -5.80259,-2.53513 -0.85719,-0.18001 -2.54043,-1.17503 -3.7405,-2.2113 -1.2001,-1.03631 -2.46252,-1.91278 -2.8054,-1.94776 -1.29662,-0.13237 2.5892,-1.0646 4.68489,-1.12404 1.20512,-0.0342 3.26334,-0.63677 4.57368,-1.33908 1.84771,-0.9903 2.99407,-1.18527 5.10674,-0.86845 2.22403,0.33351 3.03077,0.16722 4.39409,-0.90499 0.91842,-0.72246 2.05285,-1.31354 2.52093,-1.31354 0.46809,0 0.85106,-0.3847 0.85106,-0.85483 0,-0.84287 -0.49725,-0.94713 -9.47263,-1.98628 -2.99698,-0.347 -3.57981,-0.61909 -3.74051,-1.7462 -0.14164,-0.99288 -0.69745,-1.38436 -2.1683,-1.52696 -1.29145,-0.12533 -2.33625,-0.73857 -3.01018,-1.7671 -0.96091,-1.46657 -0.96069,-1.65437 0.003,-2.71929 0.59802,-0.66079 0.9478,-1.8818 0.82819,-2.89099 -0.19311,-1.6311 -1.2e-4,-1.79515 2.91005,-2.47157 4.26041,-0.99023 5.29908,-1.47916 5.29908,-2.49436 0,-0.47764 0.56106,-0.86844 1.24684,-0.86844 0.68576,0 1.24682,-0.22445 1.24682,-0.49875 0,-0.99253 -1.53038,-1.99552 -3.08593,-2.02244 -1.70009,-0.0288 -8.35319,-1.73002 -7.04464,-1.80068 0.42863,-0.0224 0.77928,-0.71341 0.77928,-1.5339 0,-1.51039 1.43053,-2.57349 3.08359,-2.29162 0.75427,0.12853 0.76725,-0.006 0.0796,-0.83679 -0.45226,-0.54479 -0.53999,-0.99052 -0.19536,-0.99052 0.3449,0 0.77388,-0.56148 0.95334,-1.24774 0.17937,-0.6862 0.0914,-1.10243 -0.19599,-0.92494 -0.28712,0.17744 -0.69842,0.0374 -0.91379,-0.31078 -0.25162,-0.4073 1.34689,-0.64764 4.47671,-0.67297 12.5707,-0.10167 15.74868,-0.30438 16.49553,-1.05158 0.62302,-0.62338 0.0368,-0.78324 -2.9305,-0.7991 -3.35124,-0.0192 -3.59573,-0.10583 -2.53225,-0.91097 0.81658,-0.6182 1.51474,-0.71044 2.2795,-0.30118 1.45224,0.77719 17.89127,0.27049 18.91994,-0.58306 0.63341,-0.5257 27.30753,-2.17419 28.96199,-1.78984 1.53518,0.35659 29.4821,-1.02016 29.75765,-1.46599 0.19023,-0.30822 0.55408,-0.43179 0.80821,-0.27465 0.78992,0.48823 8.63593,0.49271 20.64813,0.0128 6.34331,-0.25418 18.40648,-0.44113 26.80706,-0.41583 8.400614,0.0256 22.708074,0.0476 31.794404,0.0499 17.35874,0.003 25.26696,0.13461 29.92416,0.49488 1.54298,0.11926 34.6465803,0.34057 73.56352,0.49171 67.0235,0.26026 97.053096,0.59105 116.891196,1.28761 4.8004,0.16882 16.8635,0.45811 26.8071,0.64349 9.9435,0.18544 23.1197,0.45049 29.2803,0.58925 7.0293,0.15827 10.8605,0.0368 10.2864,-0.32631 -0.6068,-0.3838 0.5543,-0.54878 3.4493,-0.49014 4.3254,0.0876 4.3364,0.0921 1.2468,0.51594 -2.6629,0.36523 -2.2714,0.4418 2.6863,0.52548 4.1805,0.0707 5.6815,-0.0994 5.3675,-0.60749 -0.3169,-0.51265 0.6525,-0.59127 3.5479,-0.28775 5.3353,0.5593 26.4127,0.64479 27.277,0.11062 0.7304,-0.45139 61.2163,-0.53593 61.6661,-0.086 0.1461,0.14611 0.9948,-0.01 1.886,-0.3503 2.3052,-0.87647 77.9061,-0.58501 85.0146,0.32775 4.6986,0.60333 19.634,0.99637 35.4272,0.93227 8.4005,-0.0342 17.0271,-0.016 19.1701,0.039 3.1893,0.0825 3.8964,-0.0793 3.8964,-0.89102 0,-0.87644 1.0342,-0.95238 8.8837,-0.65219 4.8861,0.18705 9.1643,0.36421 9.5072,0.39407 0.3428,0.0288 4.5509,0.0489 9.3512,0.0422 4.8004,-0.006 10.6917,0.0863 13.0919,0.20687 2.4001,0.12022 25.782,0.38856 51.9596,0.5961 33.5586,0.26601 47.834,0.17969 48.4036,-0.29319 0.8705,-0.72249 50.2002,-1.11227 57.6737,-0.45577 2.2287,0.19567 7.0939,0.64898 10.8114,1.00708 3.7175,0.35812 6.9435,0.61039 7.1692,0.56054 0.2271,-0.0495 2.5144,0.11575 5.086,0.36779 4.5471,0.44576 16.2099,0.93722 32.7296,1.37911 16.789,0.44916 27.4468,1.00926 27.9325,1.46797 0.2749,0.2609 1.6587,0.26282 3.0722,0.006 1.4135,-0.25834 4.4136,-0.33265 6.667,-0.16466 2.2534,0.16786 4.3777,0.28839 4.7208,0.26793 0.3427,-0.0224 4.2703,-0.19056 8.7276,-0.37798 4.4577,-0.18736 11.0502,-0.47531 14.6506,-0.63984 3.6002,-0.16466 10.152,-0.44235 14.5595,-0.61737 4.4075,-0.17489 8.241,-0.45871 8.5188,-0.6304 0.2782,-0.1717 0.6146,0.016 0.7482,0.41683 0.1535,0.4573 1.6824,0.71545 4.1053,0.69259 2.1243,-0.0224 3.8627,0.21742 3.8627,0.52768 0,0.31014 1.0519,0.43215 2.3378,0.27113 6.7783,-0.84971 13.2476,-1.04564 13.2476,-0.40126 0,0.37536 -0.8252,0.68246 -1.8336,0.68246 -1.0084,0 -2.0363,0.3282 -2.2841,0.72937 -0.3006,0.48784 -0.1119,0.59981 0.5684,0.33821 0.5682,-0.21806 1.4583,0.0476 2.0105,0.59981 0.7546,0.75456 1.7256,0.904 4.0701,0.62631 3.0502,-0.36123 4.2348,0.37265 1.8327,1.13513 -0.6858,0.21774 -1.2469,0.82388 -1.2469,1.34721 0,0.5233 -0.5611,1.09821 -1.247,1.27754 -0.6858,0.17937 -1.2466,0.59041 -1.2466,0.91353 0,0.32315 0.2558,0.43016 0.5656,0.23788 0.3102,-0.19248 1.223,-0.0863 2.0261,0.23532 1.1316,0.45337 1.2073,0.59399 0.3367,0.62462 -2.2144,0.0777 -9.7862,2.01969 -9.7862,2.50968 0,0.27496 1.1248,0.51549 2.4993,0.53445 3.0115,0.0416 4.3988,1.26664 4.7991,4.23759 0.43,3.19006 -0.8473,5.74226 -3.4096,6.8129 -1.8263,0.7631 -2.0478,1.05556 -1.395,1.84218 0.4269,0.51429 1.5667,0.93505 2.5333,0.93505 0.9662,0 1.9305,0.2804 2.1421,0.62341 0.2111,0.34291 -0.2142,0.62343 -0.9438,0.62343 -0.9295,0 -1.2671,0.32827 -1.1223,1.09098 0.1567,0.82471 0.9384,1.13776 3.2028,1.28263 4.0781,0.26089 3.4984,1.58515 -0.8739,1.99689 -7.1574,0.67399 -6.3146,2.61231 1.0587,2.43499 6.5259,-0.15699 7.3611,0.36539 1.5062,0.94227 -2.4114,0.23756 -5.8574,0.95129 -7.6581,1.58592 l -3.274,1.1539 3.5419,-0.19567 c 2.71,-0.14996 3.4687,-0.006 3.2305,0.61566 -0.1726,0.44631 0,0.99669 0.3546,1.22306 1.1024,0.68144 0.7533,1.48565 -0.737,1.69731 -1.1535,0.16402 -1.3671,0.53101 -1.2031,2.06948 0.1087,1.02863 0.5109,1.98068 0.8921,2.11564 0.3807,0.13493 1.3051,0.90643 2.0539,1.71442 0.8179,0.88238 2.0798,1.47238 3.1602,1.47753 0.9895,0.006 2.4334,0.1784 3.2088,0.38629 1.3038,0.34937 1.2335,0.46396 -0.9352,1.52149 -1.2898,0.62904 -3.1621,1.44748 -4.161,1.81881 -1.3802,0.51313 -1.6418,0.8491 -1.0909,1.40009 1.0935,1.09354 0.8729,2.16172 -0.5218,2.52647 -2.3666,0.6188 -1.2863,1.6895 1.7144,1.69916 2.1415,0.006 2.7023,0.17681 2.0261,0.61388 -0.5144,0.33239 -1.8704,0.60863 -3.0134,0.61388 -2.962,0.0128 -2.2052,1.52047 0.8796,1.75038 8.8711,0.66133 19.1917,1.97708 19.5165,2.4881 0.3197,0.50088 2.4382,1.06396 6.6187,1.75793 0.3431,0.0569 2.4472,0.15571 4.6757,0.21933 2.4674,0.0707 3.5976,0.29447 2.8897,0.57273 -0.6394,0.25131 -4.2402,0.35548 -8.0022,0.23149 -6.7085,-0.22126 -6.8316,-0.20047 -6.4246,1.08209 0.3632,1.1436 0.2206,1.25918 -1.1251,0.9211 -1.7457,-0.43815 -2.8408,0.62027 -1.2668,1.22427 0.5644,0.21646 3.4525,0.40516 6.4179,0.41923 2.9658,0.0128 5.7986,0.29799 6.2958,0.63131 0.6519,0.4371 0.2078,0.58213 -1.59,0.52087 -3.5317,-0.12022 -4.3205,-0.0256 -3.8316,0.46418 0.5835,0.58366 2.1505,0.71788 9.5845,0.82093 3.5068,0.0486 6.6596,-0.087 7.0062,-0.30118 0.369,-0.22797 0.4761,0.01 0.259,0.578 -0.2142,0.5595 -1.1165,0.96753 -2.138,0.96753 -0.972,0 -1.943,0.28488 -2.1585,0.63339 -0.2143,0.34834 -1.3461,0.52815 -2.5128,0.39956 -1.167,-0.12853 -1.9689,0.0128 -1.7825,0.31525 0.1855,0.30183 -0.4524,0.53631 -1.4202,0.52097 -3.965,-0.063 -8.9287,0.80226 -8.9287,1.55644 0,1.09235 6.9182,1.64861 15.18,1.22059 5.9646,-0.30886 6.8582,-0.22189 7.5597,0.73746 0.5745,0.78592 0.6286,1.61728 0.195,2.99537 -0.3303,1.04916 -0.6228,2.25821 -0.65,2.68684 -0.032,0.4286 -0.4233,0.77927 -0.8805,0.77927 -0.4572,0 -0.831,0.4208 -0.831,0.93511 0,0.51435 -0.2814,0.93515 -0.6235,0.93515 -0.343,0 -0.6234,0.42082 -0.6234,0.93514 0,0.62839 -0.6647,0.95269 -2.0262,0.98873 -8.2985,0.21965 -10.4496,0.36935 -10.8346,0.7542 -0.5451,0.54511 -0.3562,0.56944 8.1851,1.05463 1.0285,0.0582 1.5196,0.24779 1.0909,0.4207 -0.9816,0.39605 -1.0184,2.48275 -0.054,3.0785 0.3987,0.24619 2.8296,0.56979 5.4025,0.71891 2.7858,0.16147 5.0213,0.61484 5.5274,1.121 0.4678,0.46748 1.263,0.69154 1.7672,0.49801 0.5045,-0.19375 0.917,-0.0345 0.917,0.35362 0,1.06729 -3.1717,2.06327 -5.4265,1.70403 -1.4135,-0.22509 -2.4616,0.0467 -3.5848,0.92996 -2.3174,1.8229 -2.0453,3.30321 0.7511,4.08616 2.2611,0.63316 2.201,0.65717 -1.8349,0.73336 -3.5641,0.0671 -4.3154,0.28232 -5.1499,1.47382 -0.9106,1.29995 -0.8837,1.46538 0.392,2.4278 1.0135,0.7644 1.4701,1.94813 1.7572,4.55517 0.3846,3.49495 0.3718,3.52971 -1.6124,4.47137 -1.0999,0.52196 -2.3785,0.89709 -2.8411,0.8336 -0.463,-0.0636 -4.2946,-0.0822 -8.5153,-0.0416 -5.4658,0.0524 -7.5501,0.27369 -7.2441,0.76853 0.2558,0.41511 1.4001,0.56442 2.842,0.37105 1.3269,-0.17809 2.413,-0.0697 2.413,0.24043 0,0.31014 1.1923,0.56653 2.6493,0.5695 5.7465,0.0128 9.3479,0.75402 9.6721,1.99338 0.1791,0.68416 1.0625,1.3326 2.0981,1.53975 1.2066,0.2414 1.7892,0.73845 1.7892,1.52672 0,1.00935 0.4965,1.16893 3.6366,1.16893 2.0002,0 3.8265,0.1896 4.058,0.4213 0.5566,0.55662 -2.0626,3.3192 -3.1471,3.3192 -0.4652,0 -1.0136,0.43694 -1.2185,0.97095 -0.2046,0.53405 -0.6871,0.85144 -1.0714,0.70536 -1.1597,-0.44075 -3.4144,0.67894 -3.2753,1.62645 0.07,0.48727 0.6103,1.3662 1.1974,1.95323 1.7949,1.79486 1.2306,2.22505 -2.9182,2.22505 -2.9677,0 -4.0772,0.23884 -4.3445,0.93514 -0.2845,0.74283 0.1983,0.93511 2.3507,0.93511 1.6479,0 3.0134,0.36641 3.4857,0.93514 0.4268,0.51435 1.3729,0.95484 2.1022,0.97895 1.2517,0.0412 1.2584,0.0707 0.1215,0.51588 -0.7479,0.29287 -0.9477,0.63137 -0.526,0.89195 0.3738,0.23084 0.5327,0.98124 0.353,1.66732 -0.422,1.61472 2.5799,5.6089 4.2156,5.6089 0.9291,0 1.2153,0.4316 1.2153,1.83348 0,1.00843 -0.3037,2.02091 -0.674,2.24999 -0.3709,0.22893 -0.5058,1.08724 -0.3005,1.90703 0.3414,1.36028 0.1822,1.49054 -1.8199,1.49054 -2.0917,0 -2.1937,0.10167 -2.1937,2.18198 0,1.44339 0.291,2.18196 0.8633,2.18196 0.9672,0 3.1768,3.02514 2.6179,3.58409 -0.1982,0.19727 -1.6559,0.30982 -3.2411,0.24971 -2.7541,-0.10423 -2.8692,-0.0403 -2.5863,1.43849 0.1631,0.85115 0.112,1.43392 -0.1119,1.29503 -0.2238,-0.13876 -0.7478,0.29031 -1.1622,0.95401 -0.7002,1.12128 -0.5659,1.2079 1.9015,1.22631 2.2061,0.016 2.49,0.14804 1.6811,0.77928 -0.5359,0.41772 -1.1581,1.25039 -1.3832,1.85043 -0.2621,0.70113 -1.0688,1.09101 -2.2547,1.09101 -1.0148,0 -2.2844,0.43895 -2.8209,0.97555 -0.5366,0.53657 -1.749,0.91503 -2.6941,0.84111 -3.2999,-0.25834 -7.0174,0.0579 -7.0174,0.59645 0,0.29863 1.6581,0.73049 3.6846,0.9598 2.0264,0.22924 4.0017,0.79906 4.3895,1.26619 0.3875,0.46712 1.4644,1.03998 2.3929,1.273 1.5449,0.38776 1.5954,0.49132 0.5979,1.22088 -1.3809,1.0097 -1.4088,2.21828 -0.051,2.21828 2.1492,0 0.1439,0.7926 -2.4191,0.9556 -4.5893,0.29191 -10.5871,1.50595 -12.5931,2.549 -1.2764,0.66363 -4.6527,1.16797 -10.0286,1.49809 -4.4573,0.27369 -8.8677,0.69113 -9.8003,0.92757 -1.4532,0.36832 -1.5712,0.55476 -0.824,1.30206 0.6785,0.6784 3.2021,0.87145 11.359,0.86908 10.3874,-0.003 11.5166,0.15667 18.5913,2.62999 1.0289,0.3596 3.759,0.70565 6.0675,0.76895 4.3032,0.11798 6.6209,0.90608 3.0761,1.04599 -1.0858,0.0428 -2.2547,0.14804 -2.5975,0.23372 -0.3431,0.0857 -0.9042,0.19088 -1.2469,0.23373 -0.3428,0.0428 -0.6235,1.05983 -0.6235,2.2599 0,1.81277 -0.2366,2.20162 -1.4027,2.29811 -4.5203,0.37431 -7.5075,0.49274 -11.5191,0.4567 -5.2634,-0.0473 -6.0503,0.25259 -5.1371,1.95866 0.5167,0.96542 1.3649,1.22264 4.2099,1.27664 1.9592,0.0374 5.2457,0.27657 7.3032,0.53181 3.0467,0.37801 3.3357,0.50242 1.5583,0.67082 -1.1999,0.11382 -2.7429,0.26761 -3.4287,0.34195 -0.6858,0.0745 -1.8519,0.16306 -2.5911,0.19663 -0.9972,0.0457 -1.2652,0.36446 -1.0372,1.2354 0.3408,1.3044 2.8648,1.91882 7.9923,1.94581 3.6803,0.0192 4.3639,0.40819 4.3639,2.48182 0,1.79691 -1.5382,2.30953 -7.2882,2.42911 -1.9513,0.0406 -3.7108,0.33703 -3.9096,0.65883 -0.5269,0.85278 1.4947,1.79982 3.0262,1.41749 1.2815,-0.31989 1.2856,-0.29607 0.1791,0.96017 -1.0999,1.24659 -1.0999,1.29785 0,1.58429 0.625,0.16274 2.3902,0.34358 3.923,0.40155 1.5328,0.0579 2.9022,0.22061 3.0429,0.36151 0.1407,0.14068 -0.2015,1.22028 -0.7607,2.39877 -1.166,2.45749 -1.2843,3.51269 -0.3932,3.51269 0.9128,0 0.7609,1.02035 -0.3134,2.09285 -0.5144,0.51435 -0.9352,1.41499 -0.9352,2.00144 0,0.92523 -0.4946,1.02134 -3.7405,0.72703 -2.8766,-0.2609 -3.7405,-0.14644 -3.7405,0.49481 0,1.30842 -1.4909,1.50355 -12.4061,1.62428 -5.6234,0.0624 -11.0939,0.32405 -12.1567,0.58194 -1.0826,0.26282 3.0915,0.46776 9.4892,0.46607 6.2821,0 11.5889,0.16402 11.7932,0.36826 0.2046,0.20399 -2.5511,0.40069 -6.1228,0.43675 -14.4936,0.14644 -23.0885,0.42406 -23.4214,0.75674 -0.195,0.19343 0.7309,0.81661 2.054,1.38509 1.9423,0.83469 4.3205,1.01556 12.3594,0.94013 5.4747,-0.0512 9.7811,0.0796 9.5691,0.29159 -0.211,0.21166 -3.4284,0.39746 -7.1488,0.41281 -6.6692,0.0288 -12.6865,1.1664 -12.6865,2.40128 0,0.67617 0.3773,0.72697 6.5461,0.88185 10.0159,0.2513 11.5333,0.37386 11.5333,0.93063 0,0.32149 -3.016,0.69663 -6.7018,0.83363 -3.6859,0.13684 -7.9642,0.44282 -9.5072,0.67958 -1.543,0.23692 -4.4589,0.54744 -6.4802,0.69033 -4.1706,0.29479 -4.8503,0.71283 -4.3391,2.66784 0.2654,1.01207 1.2611,1.66573 3.7201,2.44094 1.8474,0.58229 3.3543,1.21794 3.3491,1.41243 -0.032,0.83184 -1.0586,1.80647 -2.9517,2.7764 -2.3279,1.19287 -2.4363,1.49639 -0.9352,2.62148 0.9768,0.73183 0.8975,0.80447 -0.7549,0.69215 -1.3198,-0.0898 -1.91,0.18512 -2.0715,0.96545 -0.1407,0.67249 0.1503,1.09101 0.7546,1.09101 1.5944,0 1.119,1.07701 -0.674,1.52706 -1.8007,0.4519 -13.0859,0.54884 -13.8017,0.11862 -0.4195,-0.25227 -11.1813,-0.69337 -33.7934,-1.38542 -5.6576,-0.17297 -11.1282,-0.4293 -12.1567,-0.56915 -2.0888,-0.28392 -14.4399,-1.09302 -15.8973,-1.04142 -5.2013,0.18449 -18.972,0.0416 -19.2128,-0.19887 -0.1694,-0.17073 -0.6868,0 -1.1468,0.38403 -0.6194,0.51393 -1.0798,0.49267 -1.7717,-0.0819 -0.7468,-0.6197 -1.1264,-0.61749 -1.8835,0.01 -0.7174,0.59549 -5.1773,0.77214 -18.3342,0.72633 -13.6632,-0.0473 -17.4523,0.11158 -17.695,0.74343 -0.2494,0.64694 -7.8388,0.77045 -38.8642,0.63207 -21.2057,-0.0946 -41.5015,-0.1701 -45.1018,-0.16786 -3.6002,0 -7.3875,-0.006 -8.4161,-0.0192 -1.0287,-0.01 -3.273,-0.01 -4.9874,0.006 -7.0452,0.0585 -34.379,0.0361 -35.5349,-0.0288 -0.6858,-0.0387 -3.4912,-0.0656 -6.2342,-0.0598 -2.7431,0.006 -9.476,-0.13237 -14.9621,-0.30726 -9.2128,-0.29415 -31.3876,-0.45705 -32.1061,-0.23596 -0.1717,0.0531 -0.4943,0.0723 -0.7175,0.0428 -0.2232,-0.0288 -6.666,-0.21869 -14.3175,-0.42101 -7.687,-0.20335 -14.2451,-0.64442 -14.6566,-0.98598 -0.4956,-0.41127 -0.8802,-0.39938 -1.149,0.0358 -0.2222,0.35953 -0.8784,0.64943 -1.4582,0.64415 -0.9101,-0.006 -0.9264,-0.094 -0.1189,-0.62644 0.7052,-0.46521 0.4475,-0.58434 -1.0479,-0.48455 -1.0906,0.0729 -1.8455,0.35468 -1.6776,0.62641 0.1679,0.27177 -0.9736,0.49414 -2.5368,0.49414 -1.8318,0 -2.8597,-0.27688 -2.8914,-0.77927 -0.039,-0.62344 -0.1122,-0.62344 -0.3637,0 -0.3596,0.89137 -2.7042,1.07291 -2.7042,0.20942 0,-0.49209 -1.2703,-0.46329 -5.6107,0.12693 -0.5144,0.07 -4.7225,-0.25002 -9.3513,-0.7111 -4.6289,-0.46102 -9.2578,-0.70878 -10.2865,-0.55051 -1.0286,0.15826 -2.306,0.0652 -2.8387,-0.20719 -0.9598,-0.49046 -19.6498,-1.33713 -27.3441,-1.23869 -2.1996,0.0288 -4.3036,0.29959 -4.6757,0.60323 -1.2121,0.98924 -9.0219,2.6534 -10.3998,2.21607 -0.7564,-0.24011 -1.1897,-0.17841 -0.9924,0.14068 0.4137,0.66929 -10.4886,2.63805 -14.5327,2.62433 -1.543,-0.006 -3.2262,0.0256 -3.7405,0.0671 -0.5143,0.0425 -3.6513,0.0419 -6.9709,0 -3.3197,-0.0429 -6.9712,0.0972 -8.1144,0.31173 -1.1433,0.21454 -2.2144,0.25419 -2.3804,0.0886 z"
       id="path3383"
      style="fill:#5A2D8F" />
  </g>
</svg>
