<svg width="560" height="408" viewBox="0 0 560 408" fill="none" xmlns="http://www.w3.org/2000/svg">
<path d="M9.515 250.172C9.515 249.813 9.46733 249.496 9.372 249.223C9.27667 248.946 9.1445 248.714 8.9755 248.528C8.80217 248.337 8.59633 248.194 8.358 248.099C8.11967 248.003 7.8575 247.956 7.5715 247.956C6.97783 247.956 6.51417 248.14 6.1805 248.508C5.84683 248.872 5.68 249.427 5.68 250.172L5.68 251.667L9.515 251.667L9.515 250.172ZM4.6855 250.172C4.6855 249.583 4.75483 249.072 4.8935 248.638C5.02783 248.201 5.22067 247.839 5.472 247.553C5.72333 247.267 6.02667 247.054 6.382 246.916C6.73733 246.773 7.13383 246.701 7.5715 246.701C8.00483 246.701 8.40133 246.777 8.761 246.929C9.12067 247.08 9.4305 247.304 9.6905 247.598C9.9505 247.889 10.1542 248.25 10.3015 248.684C10.4445 249.113 10.516 249.609 10.516 250.172L10.516 251.667L14 251.667L14 252.922L4.6855 252.922L4.6855 250.172ZM7.3115 242.954C7.3115 242.473 7.39167 242.04 7.552 241.654C7.71233 241.269 7.93983 240.939 8.2345 240.666C8.52917 240.393 8.88667 240.185 9.307 240.042C9.723 239.895 10.1888 239.821 10.7045 239.821C11.2245 239.821 11.6925 239.895 12.1085 240.042C12.5245 240.185 12.8798 240.393 13.1745 240.666C13.4692 240.939 13.6967 241.269 13.857 241.654C14.013 242.04 14.091 242.473 14.091 242.954C14.091 243.44 14.013 243.877 13.857 244.267C13.6967 244.653 13.4692 244.982 13.1745 245.255C12.8798 245.528 12.5245 245.739 12.1085 245.886C11.6925 246.029 11.2245 246.1 10.7045 246.1C10.1888 246.1 9.723 246.029 9.307 245.886C8.88667 245.739 8.52917 245.528 8.2345 245.255C7.93983 244.982 7.71233 244.653 7.552 244.267C7.39167 243.877 7.3115 243.44 7.3115 242.954ZM13.1875 242.954C13.1875 242.304 12.9708 241.819 12.5375 241.498C12.0998 241.178 11.491 241.017 10.711 241.017C9.92667 241.017 9.31567 241.178 8.878 241.498C8.44033 241.819 8.2215 242.304 8.2215 242.954C8.2215 243.284 8.27783 243.572 8.3905 243.819C8.50317 244.062 8.66567 244.265 8.878 244.43C9.09033 244.59 9.3525 244.712 9.6645 244.794C9.97217 244.872 10.321 244.911 10.711 244.911C11.491 244.911 12.0998 244.751 12.5375 244.43C12.9708 244.105 13.1875 243.613 13.1875 242.954ZM12.414 237.191C12.7 236.978 12.9015 236.746 13.0185 236.495C13.1355 236.244 13.194 235.962 13.194 235.65C13.194 235.035 12.9752 234.562 12.5375 234.233C12.0998 233.904 11.4758 233.739 10.6655 233.739C10.2365 233.739 9.86817 233.778 9.5605 233.856C9.25283 233.93 9.0015 234.038 8.8065 234.181C8.60717 234.324 8.462 234.5 8.371 234.708C8.28 234.916 8.2345 235.152 8.2345 235.416C8.2345 235.793 8.32117 236.125 8.4945 236.411C8.66783 236.692 8.91267 236.952 9.229 237.191L12.414 237.191ZM8.436 237.249C8.09367 236.972 7.8185 236.651 7.6105 236.287C7.4025 235.923 7.2985 235.507 7.2985 235.039C7.2985 234.658 7.37217 234.313 7.5195 234.006C7.6625 233.698 7.877 233.436 8.163 233.219C8.44467 233.002 8.79567 232.836 9.216 232.719C9.63633 232.602 10.1195 232.543 10.6655 232.543C11.1508 232.543 11.6037 232.608 12.024 232.738C12.44 232.868 12.8018 233.057 13.1095 233.304C13.4128 233.546 13.6533 233.845 13.831 234.201C14.0043 234.552 14.091 234.948 14.091 235.39C14.091 235.793 14.0238 236.14 13.8895 236.43C13.7508 236.716 13.5602 236.97 13.3175 237.191L16.2295 237.191L16.2295 238.354L7.4155 238.354L7.4155 237.659C7.4155 237.494 7.49567 237.392 7.656 237.353L8.436 237.249ZM7.4155 225.652L14 225.652L14 226.341C14 226.506 13.9198 226.61 13.7595 226.653L13.051 226.744C13.3673 227.03 13.623 227.351 13.818 227.706C14.0087 228.062 14.104 228.469 14.104 228.928C14.104 229.288 14.0455 229.607 13.9285 229.884C13.8072 230.157 13.6382 230.387 13.4215 230.573C13.2048 230.759 12.9427 230.9 12.635 230.995C12.3273 231.086 11.9872 231.132 11.6145 231.132L7.4155 231.132L7.4155 229.975L11.6145 229.975C12.1128 229.975 12.4985 229.862 12.7715 229.637C13.0445 229.407 13.181 229.058 13.181 228.59C13.181 228.248 13.1008 227.93 12.9405 227.635C12.7758 227.336 12.5505 227.061 12.2645 226.809L7.4155 226.809L7.4155 225.652ZM4.4255 222.622L14 222.622L14 223.779L4.4255 223.779L4.4255 222.622ZM11.036 217.177C11.0533 217.71 11.0967 218.165 11.166 218.542C11.231 218.915 11.3177 219.22 11.426 219.459C11.5343 219.693 11.6622 219.864 11.8095 219.972C11.9568 220.076 12.1215 220.128 12.3035 220.128C12.4768 220.128 12.6263 220.1 12.752 220.044C12.8777 219.987 12.9817 219.911 13.064 219.816C13.142 219.716 13.2005 219.602 13.2395 219.472C13.2742 219.337 13.2915 219.194 13.2915 219.043C13.2915 218.839 13.272 218.653 13.233 218.484C13.1897 218.315 13.129 218.156 13.051 218.009C12.973 217.857 12.8798 217.714 12.7715 217.58C12.6632 217.441 12.5397 217.307 12.401 217.177L11.036 217.177ZM8.345 220.915C7.994 220.551 7.73183 220.158 7.5585 219.738C7.38516 219.318 7.2985 218.852 7.2985 218.341C7.2985 217.972 7.35916 217.645 7.4805 217.359C7.60183 217.073 7.77083 216.833 7.9875 216.638C8.20416 216.443 8.46633 216.295 8.774 216.196C9.08166 216.096 9.41966 216.046 9.788 216.046L14 216.046L14 216.56C14 216.672 13.9827 216.759 13.948 216.82C13.909 216.88 13.8353 216.928 13.727 216.963L13.103 217.093C13.2633 217.266 13.4063 217.435 13.532 217.6C13.6533 217.764 13.7573 217.938 13.844 218.12C13.9263 218.302 13.9892 218.497 14.0325 218.705C14.0802 218.908 14.104 219.136 14.104 219.387C14.104 219.643 14.0693 219.883 14 220.109C13.9263 220.334 13.818 220.531 13.675 220.7C13.532 220.865 13.3522 220.997 13.1355 221.097C12.9145 221.192 12.6545 221.24 12.3555 221.24C12.0955 221.24 11.8463 221.168 11.608 221.025C11.3653 220.882 11.1508 220.65 10.9645 220.33C10.7782 220.009 10.6265 219.591 10.5095 219.075C10.3882 218.559 10.3188 217.927 10.3015 217.177L9.788 217.177C9.27666 217.177 8.891 217.288 8.631 217.509C8.36666 217.73 8.2345 218.052 8.2345 218.477C8.2345 218.763 8.27133 219.004 8.345 219.199C8.41433 219.389 8.4945 219.556 8.5855 219.699C8.67216 219.838 8.75233 219.959 8.826 220.063C8.89533 220.163 8.93 220.262 8.93 220.362C8.93 220.44 8.9105 220.507 8.8715 220.564C8.82817 220.62 8.77617 220.668 8.7155 220.707L8.345 220.915ZM14 208.263L14 209.42L8.384 209.42L8.384 212.813L12.336 212.813C12.6133 212.813 12.8192 212.745 12.9535 212.611C13.0878 212.477 13.155 212.303 13.155 212.091C13.155 211.97 13.1398 211.866 13.1095 211.779C13.0748 211.688 13.038 211.61 12.999 211.545C12.96 211.48 12.9253 211.426 12.895 211.383C12.8603 211.335 12.843 211.294 12.843 211.259C12.843 211.198 12.8798 211.144 12.9535 211.097L13.506 210.759C13.6923 210.958 13.8397 211.198 13.948 211.48C14.052 211.762 14.104 212.052 14.104 212.351C14.104 212.871 13.9588 213.272 13.6685 213.554C13.3782 213.831 12.96 213.97 12.414 213.97L8.384 213.97L8.384 214.763C8.384 214.832 8.3645 214.89 8.3255 214.938C8.28216 214.986 8.21716 215.01 8.1305 215.01L7.669 215.01L7.526 213.931L5.498 213.664C5.433 213.651 5.381 213.623 5.342 213.58C5.29866 213.532 5.277 213.471 5.277 213.398L5.277 212.813L7.5455 212.813L7.5455 208.263L14 208.263ZM5.303 207.977C5.41566 207.977 5.52183 208 5.6215 208.048C5.71683 208.091 5.80133 208.152 5.875 208.23C5.94866 208.304 6.00716 208.39 6.0505 208.49C6.09383 208.59 6.1155 208.696 6.1155 208.809C6.1155 208.921 6.09383 209.027 6.0505 209.127C6.00716 209.222 5.94866 209.307 5.875 209.381C5.80133 209.454 5.71683 209.513 5.6215 209.556C5.52183 209.599 5.41566 209.621 5.303 209.621C5.19033 209.621 5.08416 209.599 4.9845 209.556C4.8805 209.513 4.79166 209.454 4.718 209.381C4.64 209.307 4.57933 209.222 4.536 209.127C4.49266 209.027 4.471 208.921 4.471 208.809C4.471 208.696 4.49266 208.59 4.536 208.49C4.57933 208.39 4.64 208.304 4.718 208.23C4.79166 208.152 4.8805 208.091 4.9845 208.048C5.08416 208 5.19033 207.977 5.303 207.977ZM7.3115 203.586C7.3115 203.105 7.39166 202.672 7.552 202.286C7.71233 201.901 7.93983 201.571 8.2345 201.298C8.52916 201.025 8.88666 200.817 9.307 200.674C9.723 200.527 10.1888 200.453 10.7045 200.453C11.2245 200.453 11.6925 200.527 12.1085 200.674C12.5245 200.817 12.8798 201.025 13.1745 201.298C13.4692 201.571 13.6967 201.901 13.857 202.286C14.013 202.672 14.091 203.105 14.091 203.586C14.091 204.072 14.013 204.509 13.857 204.899C13.6967 205.285 13.4692 205.614 13.1745 205.887C12.8798 206.16 12.5245 206.37 12.1085 206.518C11.6925 206.661 11.2245 206.732 10.7045 206.732C10.1888 206.732 9.723 206.661 9.307 206.518C8.88666 206.37 8.52916 206.16 8.2345 205.887C7.93983 205.614 7.71233 205.285 7.552 204.899C7.39166 204.509 7.3115 204.072 7.3115 203.586ZM13.1875 203.586C13.1875 202.936 12.9708 202.451 12.5375 202.13C12.0998 201.81 11.491 201.649 10.711 201.649C9.92666 201.649 9.31566 201.81 8.878 202.13C8.44033 202.451 8.2215 202.936 8.2215 203.586C8.2215 203.916 8.27783 204.204 8.3905 204.451C8.50316 204.693 8.66566 204.897 8.878 205.062C9.09033 205.222 9.3525 205.343 9.6645 205.426C9.97216 205.504 10.321 205.543 10.711 205.543C11.491 205.543 12.0998 205.382 12.5375 205.062C12.9708 204.737 13.1875 204.245 13.1875 203.586ZM8.371 197.894C8.21066 197.751 8.0655 197.599 7.9355 197.439C7.8055 197.279 7.695 197.11 7.604 196.932C7.50866 196.75 7.43716 196.559 7.3895 196.36C7.3375 196.156 7.3115 195.937 7.3115 195.703C7.3115 195.344 7.37216 195.027 7.4935 194.754C7.6105 194.477 7.7795 194.247 8.0005 194.065C8.21716 193.879 8.47933 193.738 8.787 193.643C9.09466 193.548 9.43483 193.5 9.8075 193.5L14 193.5L14 194.663L9.8075 194.663C9.30916 194.663 8.9235 194.778 8.6505 195.008C8.37316 195.233 8.2345 195.578 8.2345 196.041C8.2345 196.384 8.31683 196.704 8.4815 197.003C8.64616 197.298 8.86933 197.571 9.151 197.822L14 197.822L14 198.986L7.4155 198.986L7.4155 198.29C7.4155 198.126 7.49566 198.024 7.656 197.985L8.371 197.894ZM14.1365 187.774C14.2882 187.83 14.4008 187.919 14.4745 188.04C14.5482 188.157 14.585 188.278 14.585 188.404L14.585 188.892L4.8545 184.985C4.71583 184.933 4.60966 184.855 4.536 184.751C4.46233 184.643 4.4255 184.519 4.4255 184.381L4.4255 183.887L14.1365 187.774ZM12.999 175.664C12.999 175.304 12.9578 174.995 12.8755 174.735C12.7932 174.475 12.6783 174.262 12.531 174.098C12.3793 173.929 12.2017 173.805 11.998 173.727C11.79 173.649 11.5625 173.61 11.3155 173.61C10.8345 173.61 10.4553 173.781 10.178 174.124C9.89633 174.466 9.7555 174.979 9.7555 175.664L9.7555 177.679L12.999 177.679L12.999 175.664ZM5.68 177.679L8.8585 177.679L8.8585 176.015C8.8585 175.66 8.8195 175.352 8.7415 175.092C8.6635 174.828 8.55516 174.611 8.4165 174.442C8.27783 174.269 8.111 174.141 7.916 174.059C7.71666 173.976 7.5 173.935 7.266 173.935C6.71566 173.935 6.31483 174.1 6.0635 174.429C5.80783 174.758 5.68 175.27 5.68 175.963L5.68 177.679ZM4.6855 175.963C4.6855 175.391 4.74183 174.899 4.8545 174.488C4.96716 174.072 5.1275 173.731 5.3355 173.467C5.5435 173.198 5.79916 173.001 6.1025 172.876C6.4015 172.75 6.7395 172.687 7.1165 172.687C7.34616 172.687 7.56716 172.724 7.7795 172.798C7.9875 172.867 8.1825 172.973 8.3645 173.116C8.5465 173.259 8.71116 173.441 8.8585 173.662C9.0015 173.879 9.1185 174.134 9.2095 174.429C9.3395 173.744 9.58433 173.231 9.944 172.889C10.2993 172.542 10.7673 172.369 11.348 172.369C11.7423 172.369 12.102 172.442 12.427 172.59C12.752 172.733 13.0315 172.945 13.2655 173.227C13.4995 173.504 13.6815 173.846 13.8115 174.254C13.9372 174.661 14 175.125 14 175.645L14 178.934L4.6855 178.934L4.6855 175.963ZM7.4155 169.72L14 169.72L14 170.877L7.4155 170.877L7.4155 169.72ZM5.3485 169.473C5.46116 169.473 5.56733 169.497 5.667 169.544C5.76233 169.588 5.849 169.648 5.927 169.726C6.00066 169.8 6.05916 169.889 6.1025 169.993C6.14583 170.093 6.1675 170.199 6.1675 170.311C6.1675 170.424 6.14583 170.53 6.1025 170.63C6.05916 170.725 6.00066 170.81 5.927 170.883C5.849 170.957 5.76233 171.016 5.667 171.059C5.56733 171.102 5.46116 171.124 5.3485 171.124C5.23583 171.124 5.12966 171.102 5.03 171.059C4.926 171.016 4.83716 170.957 4.7635 170.883C4.6855 170.81 4.62483 170.725 4.5815 170.63C4.53816 170.53 4.5165 170.424 4.5165 170.311C4.5165 170.199 4.53816 170.093 4.5815 169.993C4.62483 169.889 4.6855 169.8 4.7635 169.726C4.83716 169.648 4.926 169.588 5.03 169.544C5.12966 169.497 5.23583 169.473 5.3485 169.473ZM4.4255 166.623L14 166.623L14 167.78L4.4255 167.78L4.4255 166.623ZM4.4255 163.551L14 163.551L14 164.708L4.4255 164.708L4.4255 163.551ZM7.4155 160.452L14 160.452L14 161.609L7.4155 161.609L7.4155 160.452ZM5.3485 160.205C5.46116 160.205 5.56733 160.229 5.667 160.277C5.76233 160.32 5.849 160.381 5.927 160.459C6.00066 160.532 6.05916 160.621 6.1025 160.725C6.14583 160.825 6.1675 160.931 6.1675 161.044C6.1675 161.156 6.14583 161.263 6.1025 161.362C6.05916 161.458 6.00066 161.542 5.927 161.616C5.849 161.689 5.76233 161.748 5.667 161.791C5.56733 161.835 5.46116 161.856 5.3485 161.856C5.23583 161.856 5.12966 161.835 5.03 161.791C4.926 161.748 4.83716 161.689 4.7635 161.616C4.6855 161.542 4.62483 161.458 4.5815 161.362C4.53816 161.263 4.5165 161.156 4.5165 161.044C4.5165 160.931 4.53816 160.825 4.5815 160.725C4.62483 160.621 4.6855 160.532 4.7635 160.459C4.83716 160.381 4.926 160.32 5.03 160.277C5.12966 160.229 5.23583 160.205 5.3485 160.205ZM7.3115 155.776C7.3115 155.295 7.39166 154.861 7.552 154.476C7.71233 154.09 7.93983 153.761 8.2345 153.488C8.52916 153.215 8.88666 153.007 9.307 152.864C9.723 152.716 10.1888 152.643 10.7045 152.643C11.2245 152.643 11.6925 152.716 12.1085 152.864C12.5245 153.007 12.8798 153.215 13.1745 153.488C13.4692 153.761 13.6967 154.09 13.857 154.476C14.013 154.861 14.091 155.295 14.091 155.776C14.091 156.261 14.013 156.699 13.857 157.089C13.6967 157.474 13.4692 157.804 13.1745 158.077C12.8798 158.35 12.5245 158.56 12.1085 158.707C11.6925 158.85 11.2245 158.922 10.7045 158.922C10.1888 158.922 9.723 158.85 9.307 158.707C8.88666 158.56 8.52916 158.35 8.2345 158.077C7.93983 157.804 7.71233 157.474 7.552 157.089C7.39166 156.699 7.3115 156.261 7.3115 155.776ZM13.1875 155.776C13.1875 155.126 12.9708 154.64 12.5375 154.32C12.0998 153.999 11.491 153.839 10.711 153.839C9.92666 153.839 9.31566 153.999 8.878 154.32C8.44033 154.64 8.2215 155.126 8.2215 155.776C8.2215 156.105 8.27783 156.393 8.3905 156.64C8.50316 156.883 8.66566 157.087 8.878 157.251C9.09033 157.412 9.3525 157.533 9.6645 157.615C9.97216 157.693 10.321 157.732 10.711 157.732C11.491 157.732 12.0998 157.572 12.5375 157.251C12.9708 156.926 13.1875 156.434 13.1875 155.776ZM8.371 150.083C8.21066 149.94 8.0655 149.789 7.9355 149.628C7.8055 149.468 7.695 149.299 7.604 149.121C7.50866 148.939 7.43716 148.749 7.38949 148.549C7.3375 148.346 7.3115 148.127 7.3115 147.893C7.3115 147.533 7.37216 147.217 7.4935 146.944C7.6105 146.666 7.7795 146.437 8.0005 146.255C8.21716 146.068 8.47933 145.928 8.78699 145.832C9.09466 145.737 9.43483 145.689 9.80749 145.689L14 145.689L14 146.853L9.8075 146.853C9.30916 146.853 8.9235 146.968 8.6505 147.197C8.37316 147.423 8.2345 147.767 8.2345 148.231C8.2345 148.573 8.31683 148.894 8.4815 149.193C8.64616 149.487 8.86933 149.76 9.151 150.012L14 150.012L14 151.175L7.4155 151.175L7.4155 150.48C7.4155 150.315 7.49566 150.213 7.65599 150.174L8.371 150.083ZM8.50099 140.091C8.59633 140.143 8.64399 140.223 8.64399 140.332C8.64399 140.397 8.62016 140.47 8.57249 140.553C8.52483 140.635 8.47283 140.737 8.41649 140.858C8.35583 140.975 8.30166 141.116 8.25399 141.281C8.20199 141.445 8.17599 141.64 8.17599 141.866C8.17599 142.061 8.20199 142.236 8.25399 142.392C8.30166 142.548 8.36883 142.683 8.45549 142.795C8.54216 142.904 8.64399 142.988 8.76099 143.049C8.87366 143.105 8.99716 143.133 9.1315 143.133C9.30049 143.133 9.44133 143.086 9.554 142.99C9.66666 142.891 9.76416 142.761 9.84649 142.6C9.92883 142.44 10.0025 142.258 10.0675 142.054C10.1282 141.851 10.1953 141.643 10.269 141.43C10.3383 141.214 10.4163 141.003 10.503 140.8C10.5897 140.596 10.698 140.414 10.828 140.254C10.958 140.093 11.1183 139.966 11.309 139.87C11.4953 139.771 11.7207 139.721 11.985 139.721C12.2883 139.721 12.57 139.775 12.83 139.883C13.0857 139.992 13.3088 140.152 13.4995 140.364C13.6858 140.577 13.8332 140.837 13.9415 141.144C14.0498 141.452 14.104 141.807 14.104 142.21C14.104 142.67 14.0303 143.086 13.883 143.458C13.7313 143.831 13.5385 144.147 13.3045 144.407L12.8625 144.134C12.8062 144.1 12.7628 144.058 12.7325 144.011C12.7022 143.963 12.687 143.902 12.687 143.829C12.687 143.751 12.7173 143.668 12.778 143.582C12.8387 143.495 12.9058 143.391 12.9795 143.27C13.0532 143.144 13.1203 142.992 13.181 142.815C13.2417 142.637 13.272 142.416 13.272 142.152C13.272 141.926 13.2438 141.729 13.1875 141.56C13.1268 141.391 13.0467 141.25 12.947 141.138C12.8473 141.025 12.7325 140.943 12.6025 140.891C12.4725 140.834 12.3338 140.806 12.1865 140.806C12.0045 140.806 11.855 140.856 11.738 140.956C11.6167 141.051 11.5148 141.179 11.4325 141.339C11.3458 141.5 11.2722 141.684 11.2115 141.892C11.1465 142.095 11.0793 142.306 11.01 142.522C10.9407 142.735 10.8627 142.945 10.776 143.153C10.685 143.356 10.5723 143.538 10.438 143.699C10.3037 143.859 10.139 143.989 9.944 144.089C9.74466 144.184 9.50416 144.232 9.2225 144.232C8.97116 144.232 8.73066 144.18 8.501 144.076C8.26699 143.972 8.06333 143.82 7.88999 143.621C7.71233 143.421 7.57149 143.177 7.4675 142.886C7.36349 142.596 7.31149 142.264 7.31149 141.892C7.31149 141.458 7.38083 141.071 7.51949 140.728C7.65383 140.382 7.84016 140.083 8.07849 139.831L8.50099 140.091Z" fill="black"/>
<path d="M292.719 400.295V404H291.465V400.295L288.052 394.685H289.157C289.27 394.685 289.359 394.714 289.424 394.77C289.489 394.826 289.545 394.896 289.593 394.978L291.725 398.598C291.811 398.75 291.883 398.893 291.939 399.027C292 399.162 292.054 399.294 292.102 399.424C292.149 399.29 292.201 399.155 292.258 399.021C292.314 398.887 292.385 398.746 292.472 398.598L294.598 394.978C294.637 394.909 294.689 394.844 294.754 394.783C294.823 394.718 294.912 394.685 295.02 394.685H296.138L292.719 400.295ZM298.69 397.311C299.085 397.311 299.449 397.379 299.782 397.513C300.116 397.643 300.404 397.834 300.647 398.085C300.889 398.332 301.078 398.64 301.212 399.008C301.351 399.372 301.42 399.788 301.42 400.256C301.42 400.438 301.401 400.559 301.362 400.62C301.323 400.681 301.249 400.711 301.141 400.711H296.76C296.768 401.127 296.825 401.489 296.929 401.796C297.033 402.104 297.176 402.362 297.358 402.57C297.54 402.774 297.756 402.927 298.008 403.031C298.259 403.131 298.541 403.181 298.853 403.181C299.143 403.181 299.392 403.148 299.6 403.083C299.813 403.014 299.995 402.94 300.146 402.862C300.298 402.784 300.424 402.713 300.523 402.648C300.627 402.579 300.716 402.544 300.79 402.544C300.885 402.544 300.959 402.581 301.011 402.654L301.336 403.077C301.193 403.25 301.022 403.402 300.822 403.532C300.623 403.658 300.408 403.762 300.179 403.844C299.953 403.926 299.719 403.987 299.477 404.026C299.234 404.069 298.994 404.091 298.755 404.091C298.3 404.091 297.88 404.015 297.494 403.863C297.113 403.707 296.781 403.482 296.5 403.188C296.222 402.888 296.006 402.52 295.85 402.082C295.694 401.645 295.616 401.142 295.616 400.574C295.616 400.115 295.685 399.686 295.824 399.287C295.967 398.889 296.17 398.544 296.435 398.254C296.699 397.959 297.022 397.73 297.403 397.565C297.785 397.396 298.214 397.311 298.69 397.311ZM298.716 398.163C298.157 398.163 297.717 398.325 297.397 398.65C297.076 398.971 296.877 399.417 296.799 399.989H300.38C300.38 399.721 300.343 399.476 300.27 399.255C300.196 399.03 300.088 398.837 299.945 398.676C299.802 398.512 299.626 398.386 299.418 398.299C299.215 398.208 298.981 398.163 298.716 398.163ZM307.737 404H307.224C307.111 404 307.02 403.983 306.951 403.948C306.881 403.913 306.836 403.84 306.814 403.727L306.684 403.116C306.511 403.272 306.342 403.413 306.177 403.538C306.012 403.66 305.839 403.764 305.657 403.85C305.475 403.933 305.28 403.996 305.072 404.039C304.868 404.082 304.641 404.104 304.39 404.104C304.134 404.104 303.893 404.069 303.668 404C303.447 403.926 303.254 403.818 303.09 403.675C302.925 403.532 302.793 403.352 302.693 403.135C302.598 402.914 302.55 402.654 302.55 402.355C302.55 402.095 302.622 401.846 302.765 401.608C302.908 401.365 303.137 401.151 303.454 400.964C303.774 400.778 304.192 400.626 304.708 400.509C305.224 400.388 305.854 400.319 306.6 400.301V399.788C306.6 399.277 306.489 398.891 306.268 398.631C306.051 398.367 305.729 398.234 305.3 398.234C305.018 398.234 304.78 398.271 304.585 398.345C304.394 398.414 304.227 398.494 304.084 398.585C303.945 398.672 303.824 398.752 303.72 398.826C303.62 398.895 303.521 398.93 303.421 398.93C303.343 398.93 303.274 398.91 303.213 398.871C303.157 398.828 303.111 398.776 303.077 398.715L302.869 398.345C303.233 397.994 303.625 397.732 304.045 397.558C304.465 397.385 304.931 397.298 305.443 397.298C305.811 397.298 306.138 397.359 306.424 397.48C306.71 397.602 306.951 397.771 307.146 397.987C307.341 398.204 307.488 398.466 307.588 398.774C307.687 399.082 307.737 399.42 307.737 399.788V404ZM304.734 403.291C304.938 403.291 305.124 403.272 305.293 403.233C305.462 403.19 305.62 403.131 305.768 403.057C305.919 402.979 306.062 402.886 306.197 402.778C306.335 402.67 306.47 402.546 306.6 402.407V401.036C306.067 401.053 305.614 401.097 305.241 401.166C304.868 401.231 304.565 401.318 304.331 401.426C304.097 401.534 303.926 401.662 303.818 401.809C303.714 401.957 303.662 402.121 303.662 402.303C303.662 402.477 303.69 402.626 303.746 402.752C303.802 402.878 303.878 402.982 303.974 403.064C304.069 403.142 304.182 403.2 304.312 403.239C304.442 403.274 304.582 403.291 304.734 403.291ZM309.49 404V397.415H310.153C310.279 397.415 310.365 397.439 310.413 397.487C310.461 397.535 310.493 397.617 310.511 397.734L310.589 398.761C310.814 398.302 311.091 397.944 311.421 397.688C311.754 397.428 312.144 397.298 312.591 397.298C312.773 397.298 312.937 397.32 313.085 397.363C313.232 397.402 313.368 397.459 313.494 397.532L313.345 398.397C313.314 398.505 313.247 398.559 313.143 398.559C313.082 398.559 312.989 398.54 312.864 398.501C312.738 398.458 312.562 398.436 312.337 398.436C311.934 398.436 311.596 398.553 311.323 398.787C311.054 399.021 310.829 399.361 310.647 399.807V404H309.49ZM318.503 398.501C318.451 398.596 318.371 398.644 318.263 398.644C318.198 398.644 318.124 398.62 318.042 398.572C317.959 398.525 317.858 398.473 317.736 398.416C317.619 398.356 317.478 398.302 317.314 398.254C317.149 398.202 316.954 398.176 316.729 398.176C316.534 398.176 316.358 398.202 316.202 398.254C316.046 398.302 315.912 398.369 315.799 398.455C315.691 398.542 315.606 398.644 315.546 398.761C315.489 398.874 315.461 398.997 315.461 399.131C315.461 399.3 315.509 399.441 315.604 399.554C315.704 399.667 315.834 399.764 315.994 399.846C316.155 399.929 316.337 400.002 316.54 400.067C316.744 400.128 316.952 400.195 317.164 400.269C317.381 400.338 317.591 400.416 317.795 400.503C317.998 400.59 318.18 400.698 318.341 400.828C318.501 400.958 318.629 401.118 318.724 401.309C318.824 401.495 318.874 401.721 318.874 401.985C318.874 402.288 318.82 402.57 318.711 402.83C318.603 403.086 318.443 403.309 318.23 403.499C318.018 403.686 317.758 403.833 317.45 403.941C317.143 404.05 316.787 404.104 316.384 404.104C315.925 404.104 315.509 404.03 315.136 403.883C314.764 403.731 314.447 403.538 314.187 403.304L314.46 402.862C314.495 402.806 314.536 402.763 314.584 402.732C314.631 402.702 314.694 402.687 314.772 402.687C314.85 402.687 314.933 402.717 315.019 402.778C315.106 402.839 315.21 402.906 315.331 402.979C315.457 403.053 315.606 403.12 315.78 403.181C315.957 403.242 316.178 403.272 316.443 403.272C316.668 403.272 316.865 403.244 317.034 403.188C317.203 403.127 317.344 403.047 317.457 402.947C317.569 402.847 317.652 402.732 317.704 402.602C317.76 402.472 317.788 402.334 317.788 402.186C317.788 402.004 317.738 401.855 317.639 401.738C317.543 401.617 317.416 401.515 317.255 401.432C317.095 401.346 316.911 401.272 316.703 401.211C316.499 401.146 316.289 401.079 316.072 401.01C315.86 400.941 315.65 400.863 315.442 400.776C315.238 400.685 315.056 400.572 314.896 400.438C314.735 400.304 314.605 400.139 314.506 399.944C314.41 399.745 314.363 399.504 314.363 399.222C314.363 398.971 314.415 398.731 314.519 398.501C314.623 398.267 314.774 398.063 314.974 397.89C315.173 397.712 315.418 397.571 315.708 397.468C315.999 397.363 316.33 397.311 316.703 397.311C317.136 397.311 317.524 397.381 317.866 397.519C318.213 397.654 318.512 397.84 318.763 398.078L318.503 398.501Z" fill="black"/>
<path d="M32.7635 60.104C32.2998 60.104 31.8752 60.0433 31.4895 59.922C31.1038 59.7963 30.7723 59.6187 30.495 59.389C30.2177 59.1593 30.0032 58.882 29.8515 58.557C29.6998 58.2277 29.624 57.8593 29.624 57.452C29.624 56.854 29.78 56.3622 30.092 55.9765C30.404 55.5865 30.8503 55.3092 31.431 55.1445C30.9413 54.9625 30.5708 54.6917 30.3195 54.332C30.0725 53.968 29.949 53.5347 29.949 53.032C29.949 52.6897 30.0162 52.369 30.1505 52.07C30.2848 51.771 30.4755 51.511 30.7225 51.29C30.9695 51.069 31.2642 50.8957 31.6065 50.77C31.9532 50.6443 32.3388 50.5815 32.7635 50.5815C33.1838 50.5815 33.5673 50.6443 33.914 50.77C34.2607 50.8957 34.5575 51.069 34.8045 51.29C35.0515 51.511 35.2422 51.771 35.3765 52.07C35.5108 52.369 35.578 52.6897 35.578 53.032C35.578 53.5347 35.4523 53.968 35.201 54.332C34.9497 54.6917 34.5813 54.9625 34.096 55.1445C34.6767 55.3092 35.123 55.5865 35.435 55.9765C35.747 56.3622 35.903 56.854 35.903 57.452C35.903 57.8593 35.825 58.2277 35.669 58.557C35.5173 58.882 35.3028 59.1593 35.0255 59.389C34.7525 59.6187 34.4232 59.7963 34.0375 59.922C33.6518 60.0433 33.2272 60.104 32.7635 60.104ZM32.7635 59.181C33.0668 59.181 33.3377 59.1398 33.576 59.0575C33.8187 58.9708 34.0223 58.8517 34.187 58.7C34.356 58.544 34.4838 58.3598 34.5705 58.1475C34.6615 57.9308 34.707 57.6925 34.707 57.4325C34.707 57.1118 34.6528 56.8388 34.5445 56.6135C34.4405 56.3838 34.2975 56.1975 34.1155 56.0545C33.9378 55.9115 33.732 55.8075 33.498 55.7425C33.264 55.6732 33.0192 55.6385 32.7635 55.6385C32.5078 55.6385 32.263 55.6732 32.029 55.7425C31.795 55.8075 31.587 55.9115 31.405 56.0545C31.2273 56.1975 31.0843 56.3838 30.976 56.6135C30.872 56.8388 30.82 57.1118 30.82 57.4325C30.82 57.6925 30.8633 57.9308 30.95 58.1475C31.041 58.3598 31.1688 58.544 31.3335 58.7C31.5025 58.8517 31.7062 58.9708 31.9445 59.0575C32.1872 59.1398 32.4602 59.181 32.7635 59.181ZM32.7635 54.709C33.0668 54.709 33.3247 54.6635 33.537 54.5725C33.7537 54.4772 33.9292 54.3537 34.0635 54.202C34.1978 54.046 34.2953 53.8683 34.356 53.669C34.4167 53.4697 34.447 53.2638 34.447 53.0515C34.447 52.8348 34.4102 52.6312 34.3365 52.4405C34.2672 52.2498 34.161 52.083 34.018 51.94C33.8793 51.797 33.7038 51.6843 33.4915 51.602C33.2835 51.5197 33.0408 51.4785 32.7635 51.4785C32.4862 51.4785 32.2413 51.5197 32.029 51.602C31.821 51.6843 31.6455 51.797 31.5025 51.94C31.3638 52.083 31.2577 52.2498 31.184 52.4405C31.1147 52.6312 31.08 52.8348 31.08 53.0515C31.08 53.2638 31.1103 53.4697 31.171 53.669C31.2317 53.8683 31.3292 54.046 31.4635 54.202C31.5978 54.3537 31.7712 54.4772 31.9835 54.5725C32.2002 54.6635 32.4602 54.709 32.7635 54.709Z" fill="black"/>
<path d="M32.5685 18.178C32.2175 18.178 31.8838 18.1195 31.5675 18.0025C31.2555 17.8855 30.9803 17.7143 30.742 17.489C30.5037 17.2593 30.313 16.9798 30.17 16.6505C30.0313 16.3168 29.962 15.9355 29.962 15.5065C29.962 15.0992 30.0378 14.7178 30.1895 14.3625C30.3412 14.0072 30.5535 13.6973 30.8265 13.433C31.0995 13.1687 31.4245 12.9607 31.8015 12.809C32.1785 12.6573 32.5923 12.5815 33.043 12.5815C33.4893 12.5815 33.8945 12.6552 34.2585 12.8025C34.6225 12.9498 34.9345 13.1557 35.1945 13.42C35.4545 13.6843 35.6538 14.0007 35.7925 14.369C35.9355 14.7373 36.007 15.1447 36.007 15.591C36.007 15.8597 35.981 16.1153 35.929 16.358C35.8813 16.5963 35.8098 16.8303 35.7145 17.06C35.6192 17.2897 35.5043 17.5193 35.37 17.749C35.24 17.9743 35.0905 18.2083 34.9215 18.451L32.653 21.727C32.5967 21.8093 32.5165 21.8765 32.4125 21.9285C32.3085 21.9762 32.1893 22 32.055 22H30.989L33.823 18.2885C33.9183 18.1628 34.0072 18.0437 34.0895 17.931C34.1718 17.8183 34.2498 17.7057 34.3235 17.593C34.0852 17.7837 33.8165 17.9288 33.5175 18.0285C33.2185 18.1282 32.9022 18.178 32.5685 18.178ZM34.8955 15.4545C34.8955 15.1642 34.8478 14.902 34.7525 14.668C34.6615 14.4297 34.5337 14.2282 34.369 14.0635C34.2043 13.8988 34.0072 13.7732 33.7775 13.6865C33.5522 13.5955 33.303 13.55 33.03 13.55C32.744 13.55 32.4818 13.5977 32.2435 13.693C32.0095 13.784 31.808 13.9118 31.639 14.0765C31.4743 14.2412 31.3465 14.4383 31.2555 14.668C31.1645 14.8977 31.119 15.149 31.119 15.422C31.119 15.7167 31.1602 15.981 31.2425 16.215C31.3292 16.4447 31.4505 16.6397 31.6065 16.8C31.7668 16.9603 31.9597 17.0817 32.185 17.164C32.4147 17.2463 32.6703 17.2875 32.952 17.2875C33.264 17.2875 33.5392 17.2377 33.7775 17.138C34.0202 17.034 34.2238 16.8975 34.3885 16.7285C34.5532 16.5595 34.6788 16.3645 34.7655 16.1435C34.8522 15.9225 34.8955 15.6928 34.8955 15.4545Z" fill="black"/>
<path d="M36.046 88.6855V89.2055C36.046 89.3528 36.0287 89.4742 35.994 89.5695C35.9637 89.6648 35.9312 89.745 35.8965 89.81L32.042 97.5905C31.9857 97.7032 31.9077 97.8007 31.808 97.883C31.7083 97.961 31.574 98 31.405 98H30.5795L34.4925 90.317C34.5488 90.2087 34.6052 90.109 34.6615 90.018C34.7222 89.927 34.7893 89.8403 34.863 89.758H30.001C29.9273 89.758 29.8602 89.7298 29.7995 89.6735C29.7432 89.6128 29.715 89.5457 29.715 89.472V88.6855H36.046Z" fill="black"/>
<path d="M33.225 130.293C33.5977 130.293 33.9508 130.356 34.2845 130.481C34.6182 130.603 34.9107 130.783 35.162 131.021C35.4133 131.255 35.6127 131.545 35.76 131.892C35.9073 132.234 35.981 132.626 35.981 133.068C35.981 133.497 35.903 133.896 35.747 134.264C35.591 134.633 35.3722 134.953 35.0905 135.226C34.8132 135.499 34.4773 135.714 34.083 135.87C33.6887 136.026 33.2553 136.104 32.783 136.104C32.315 136.104 31.8903 136.03 31.509 135.883C31.132 135.731 30.8092 135.519 30.5405 135.246C30.2718 134.969 30.0638 134.635 29.9165 134.245C29.7735 133.851 29.702 133.411 29.702 132.925C29.702 132.518 29.793 132.085 29.975 131.625C30.157 131.166 30.4452 130.672 30.8395 130.143L33.199 126.965C33.2597 126.887 33.3442 126.822 33.4525 126.77C33.5608 126.714 33.6843 126.685 33.823 126.685H34.85L31.6195 130.774C31.8405 130.622 32.0853 130.505 32.354 130.423C32.6227 130.336 32.913 130.293 33.225 130.293ZM30.82 133.127C30.82 133.426 30.8633 133.699 30.95 133.946C31.0367 134.193 31.1623 134.405 31.327 134.583C31.496 134.761 31.6997 134.899 31.938 134.999C32.1807 135.094 32.4558 135.142 32.7635 135.142C33.0755 135.142 33.3572 135.092 33.6085 134.992C33.8598 134.893 34.0743 134.754 34.252 134.576C34.434 134.399 34.5727 134.189 34.668 133.946C34.7677 133.703 34.8175 133.439 34.8175 133.153C34.8175 132.85 34.7698 132.577 34.6745 132.334C34.5792 132.087 34.4448 131.879 34.2715 131.71C34.0982 131.537 33.8902 131.404 33.6475 131.313C33.4048 131.222 33.1383 131.177 32.848 131.177C32.536 131.177 32.2543 131.231 32.003 131.339C31.7517 131.443 31.5372 131.586 31.3595 131.768C31.1862 131.946 31.0518 132.154 30.9565 132.392C30.8655 132.626 30.82 132.871 30.82 133.127Z" fill="black"/>
<path d="M35.357 165.192C35.357 165.357 35.305 165.494 35.201 165.602C35.097 165.706 34.9215 165.758 34.6745 165.758H31.7495L31.3205 168.202C31.8058 168.098 32.2543 168.046 32.666 168.046C33.1513 168.046 33.5782 168.117 33.9465 168.26C34.3192 168.403 34.6312 168.601 34.8825 168.852C35.1338 169.103 35.3223 169.4 35.448 169.742C35.578 170.085 35.643 170.457 35.643 170.86C35.643 171.354 35.5563 171.801 35.383 172.199C35.2097 172.598 34.9713 172.94 34.668 173.226C34.369 173.508 34.0158 173.725 33.6085 173.876C33.2012 174.028 32.7613 174.104 32.289 174.104C32.016 174.104 31.7538 174.076 31.5025 174.02C31.2512 173.967 31.0172 173.896 30.8005 173.805C30.5838 173.714 30.3823 173.61 30.196 173.493C30.0097 173.376 29.845 173.252 29.702 173.122L30.053 172.628C30.131 172.516 30.235 172.459 30.365 172.459C30.4473 172.459 30.5427 172.494 30.651 172.563C30.7637 172.628 30.898 172.702 31.054 172.784C31.21 172.867 31.392 172.943 31.6 173.012C31.8123 173.077 32.0637 173.109 32.354 173.109C32.679 173.109 32.9715 173.057 33.2315 172.953C33.4915 172.849 33.7125 172.702 33.8945 172.511C34.0808 172.316 34.2238 172.085 34.3235 171.816C34.4232 171.547 34.473 171.246 34.473 170.912C34.473 170.622 34.4297 170.36 34.343 170.126C34.2607 169.892 34.1328 169.693 33.9595 169.528C33.7905 169.363 33.5782 169.235 33.3225 169.144C33.0668 169.053 32.7678 169.008 32.4255 169.008C32.1915 169.008 31.9488 169.027 31.6975 169.066C31.4462 169.105 31.1862 169.168 30.9175 169.255L30.1895 169.04L30.9435 164.685H35.357V165.192Z" fill="black"/>
<path d="M34.8695 208.639H36.28V209.302C36.28 209.372 36.2583 209.43 36.215 209.478C36.176 209.526 36.1132 209.549 36.0265 209.549H34.8695V212H33.849V209.549H29.7215C29.6348 209.549 29.559 209.526 29.494 209.478C29.4333 209.426 29.3943 209.363 29.377 209.289L29.26 208.698L33.7905 202.685H34.8695V208.639ZM33.849 204.798C33.849 204.685 33.8512 204.564 33.8555 204.434C33.8642 204.304 33.8793 204.17 33.901 204.031L30.5145 208.639H33.849V204.798Z" fill="black"/>
<path d="M33.03 240.581C33.4243 240.581 33.7883 240.638 34.122 240.75C34.4557 240.863 34.7417 241.023 34.98 241.231C35.2227 241.439 35.4112 241.691 35.5455 241.985C35.6798 242.28 35.747 242.607 35.747 242.967C35.747 243.262 35.708 243.526 35.63 243.76C35.5563 243.99 35.448 244.193 35.305 244.371C35.1663 244.544 34.9973 244.692 34.798 244.813C34.5987 244.934 34.3755 245.032 34.1285 245.105C34.7352 245.266 35.1902 245.534 35.4935 245.911C35.8012 246.288 35.955 246.761 35.955 247.328C35.955 247.757 35.8727 248.143 35.708 248.485C35.5477 248.828 35.3267 249.12 35.045 249.363C34.7633 249.601 34.434 249.785 34.057 249.915C33.6843 250.041 33.2835 250.104 32.8545 250.104C32.3605 250.104 31.938 250.043 31.587 249.922C31.236 249.796 30.9392 249.625 30.6965 249.408C30.4538 249.192 30.2545 248.936 30.0985 248.641C29.9425 248.342 29.8103 248.02 29.702 247.673L30.196 247.465C30.287 247.426 30.378 247.406 30.469 247.406C30.5557 247.406 30.6315 247.426 30.6965 247.465C30.7658 247.5 30.8178 247.556 30.8525 247.634C30.8612 247.651 30.8698 247.671 30.8785 247.692C30.8872 247.71 30.8958 247.729 30.9045 247.751C30.9652 247.877 31.0388 248.02 31.1255 248.18C31.2122 248.336 31.3292 248.483 31.4765 248.622C31.6238 248.761 31.8058 248.878 32.0225 248.973C32.2435 249.068 32.5165 249.116 32.8415 249.116C33.1665 249.116 33.4503 249.064 33.693 248.96C33.94 248.852 34.1437 248.713 34.304 248.544C34.4687 248.375 34.5922 248.186 34.6745 247.978C34.7568 247.77 34.798 247.565 34.798 247.361C34.798 247.11 34.7633 246.88 34.694 246.672C34.629 246.464 34.5077 246.284 34.33 246.132C34.1567 245.981 33.914 245.862 33.602 245.775C33.2943 245.688 32.8978 245.645 32.4125 245.645V244.806C32.8068 244.802 33.1427 244.759 33.42 244.676C33.7017 244.594 33.9313 244.481 34.109 244.338C34.2867 244.195 34.4145 244.024 34.4925 243.825C34.5748 243.626 34.616 243.405 34.616 243.162C34.616 242.893 34.5727 242.659 34.486 242.46C34.4037 242.261 34.2888 242.096 34.1415 241.966C33.9942 241.836 33.8187 241.738 33.615 241.673C33.4157 241.608 33.199 241.576 32.965 241.576C32.731 241.576 32.5143 241.611 32.315 241.68C32.1157 241.749 31.938 241.847 31.782 241.972C31.6303 242.094 31.5025 242.241 31.3985 242.414C31.2945 242.583 31.2165 242.768 31.1645 242.967C31.1298 243.093 31.0778 243.184 31.0085 243.24C30.9392 243.296 30.8503 243.324 30.742 243.324C30.7203 243.324 30.6965 243.324 30.6705 243.324C30.6488 243.32 30.6228 243.316 30.5925 243.311L29.988 243.207C30.0487 242.783 30.1657 242.408 30.339 242.083C30.5123 241.754 30.7312 241.478 30.9955 241.257C31.2642 241.036 31.5697 240.87 31.912 240.757C32.2587 240.64 32.6313 240.581 33.03 240.581Z" fill="black"/>
<path d="M32.9065 278.581C33.3008 278.581 33.6692 278.64 34.0115 278.757C34.3538 278.874 34.6485 279.045 34.8955 279.27C35.1468 279.491 35.344 279.762 35.487 280.083C35.63 280.404 35.7015 280.768 35.7015 281.175C35.7015 281.522 35.6495 281.842 35.5455 282.137C35.4415 282.432 35.3007 282.715 35.123 282.988C34.9453 283.257 34.7395 283.519 34.5055 283.775C34.2758 284.026 34.031 284.284 33.771 284.548L31.3205 287.057C31.4938 287.01 31.6693 286.973 31.847 286.947C32.0247 286.917 32.1958 286.901 32.3605 286.901H35.4805C35.6062 286.901 35.7058 286.938 35.7795 287.012C35.8532 287.086 35.89 287.181 35.89 287.298V288H29.676V287.603C29.676 287.521 29.6912 287.437 29.7215 287.35C29.7562 287.263 29.8103 287.183 29.884 287.109L32.8675 284.113C33.1145 283.862 33.3398 283.621 33.5435 283.391C33.7472 283.157 33.9205 282.923 34.0635 282.689C34.2108 282.455 34.3235 282.219 34.4015 281.981C34.4795 281.738 34.5185 281.48 34.5185 281.207C34.5185 280.934 34.4752 280.696 34.3885 280.492C34.3018 280.284 34.1827 280.113 34.031 279.979C33.8793 279.845 33.7017 279.745 33.498 279.68C33.2943 279.611 33.0755 279.576 32.8415 279.576C32.6075 279.576 32.3908 279.611 32.1915 279.68C31.9922 279.749 31.8145 279.847 31.6585 279.972C31.5068 280.094 31.3768 280.239 31.2685 280.408C31.1645 280.577 31.0908 280.763 31.0475 280.967C31.0128 281.093 30.9608 281.184 30.8915 281.24C30.8222 281.296 30.7312 281.324 30.6185 281.324C30.5968 281.324 30.573 281.324 30.547 281.324C30.5253 281.32 30.4993 281.316 30.469 281.311L29.8645 281.207C29.9252 280.783 30.0422 280.408 30.2155 280.083C30.3888 279.754 30.6077 279.478 30.872 279.257C31.1407 279.036 31.4462 278.87 31.7885 278.757C32.1352 278.64 32.5078 278.581 32.9065 278.581Z" fill="black"/>
<path d="M30.8655 325.116H32.8675V318.765C32.8675 318.575 32.874 318.382 32.887 318.187L31.223 319.61C31.1797 319.645 31.1363 319.671 31.093 319.688C31.0497 319.701 31.0085 319.708 30.9695 319.708C30.9045 319.708 30.846 319.695 30.794 319.669C30.742 319.639 30.703 319.604 30.677 319.565L30.313 319.064L33.082 316.666H34.0245V325.116H35.8575V326H30.8655V325.116Z" fill="black"/>
<path d="M36.15 359.346C36.15 360.161 36.0612 360.867 35.8835 361.465C35.7102 362.059 35.4718 362.55 35.1685 362.94C34.8652 363.33 34.5055 363.621 34.0895 363.811C33.6778 364.002 33.2358 364.098 32.7635 364.098C32.2868 364.098 31.8427 364.002 31.431 363.811C31.0237 363.621 30.6683 363.33 30.365 362.94C30.0617 362.55 29.8233 362.059 29.65 361.465C29.4767 360.867 29.39 360.161 29.39 359.346C29.39 358.531 29.4767 357.825 29.65 357.227C29.8233 356.629 30.0617 356.135 30.365 355.745C30.6683 355.351 31.0237 355.058 31.431 354.867C31.8427 354.677 32.2868 354.581 32.7635 354.581C33.2358 354.581 33.6778 354.677 34.0895 354.867C34.5055 355.058 34.8652 355.351 35.1685 355.745C35.4718 356.135 35.7102 356.629 35.8835 357.227C36.0612 357.825 36.15 358.531 36.15 359.346ZM34.9475 359.346C34.9475 358.635 34.8868 358.039 34.7655 357.558C34.6485 357.073 34.4882 356.683 34.2845 356.388C34.0852 356.094 33.8533 355.884 33.589 355.758C33.3247 355.628 33.0495 355.563 32.7635 355.563C32.4775 355.563 32.2023 355.628 31.938 355.758C31.6737 355.884 31.4418 356.094 31.2425 356.388C31.0432 356.683 30.8828 357.073 30.7615 357.558C30.6445 358.039 30.586 358.635 30.586 359.346C30.586 360.057 30.6445 360.652 30.7615 361.133C30.8828 361.614 31.0432 362.002 31.2425 362.297C31.4418 362.592 31.6737 362.804 31.938 362.934C32.2023 363.06 32.4775 363.122 32.7635 363.122C33.0495 363.122 33.3247 363.06 33.589 362.934C33.8533 362.804 34.0852 362.592 34.2845 362.297C34.4882 362.002 34.6485 361.614 34.7655 361.133C34.8868 360.652 34.9475 360.057 34.9475 359.346Z" fill="black"/>
<path d="M57.617 381.116V382H52.625V381.116H54.6205V374.765C54.6205 374.575 54.627 374.382 54.64 374.187L52.9825 375.61C52.9262 375.658 52.8698 375.688 52.8135 375.701C52.7572 375.71 52.7052 375.71 52.6575 375.701C52.6098 375.693 52.5643 375.675 52.521 375.649C52.482 375.623 52.4517 375.595 52.43 375.565L52.066 375.064L54.8415 372.666H55.784V381.116H57.617ZM65.5675 372.685V373.205C65.5675 373.353 65.5502 373.474 65.5155 373.569C65.4852 373.665 65.4548 373.745 65.4245 373.81L61.5635 381.59C61.5072 381.703 61.4292 381.801 61.3295 381.883C61.2298 381.961 61.0977 382 60.933 382H60.101L64.014 374.317C64.0703 374.209 64.1288 374.109 64.1895 374.018C64.2502 373.927 64.3152 373.84 64.3845 373.758H59.5225C59.4488 373.758 59.3838 373.73 59.3275 373.673C59.2712 373.613 59.243 373.546 59.243 373.472V372.685H65.5675ZM68.435 376.202C68.9204 376.098 69.3667 376.046 69.774 376.046C70.2594 376.046 70.6884 376.117 71.061 376.26C71.4337 376.403 71.7435 376.601 71.9905 376.852C72.2419 377.103 72.4304 377.4 72.556 377.742C72.686 378.085 72.751 378.457 72.751 378.86C72.751 379.354 72.6644 379.801 72.491 380.199C72.322 380.598 72.0859 380.94 71.7825 381.226C71.4835 381.508 71.1304 381.725 70.723 381.876C70.3157 382.028 69.8759 382.104 69.4035 382.104C69.1305 382.104 68.8684 382.076 68.617 382.02C68.3657 381.967 68.1295 381.896 67.9085 381.805C67.6919 381.714 67.4904 381.61 67.304 381.493C67.1177 381.376 66.953 381.252 66.81 381.122L67.1675 380.628C67.2455 380.516 67.3474 380.459 67.473 380.459C67.5597 380.459 67.6572 380.494 67.7655 380.563C67.8739 380.628 68.006 380.702 68.162 380.784C68.318 380.867 68.5 380.943 68.708 381.012C68.9204 381.077 69.1717 381.109 69.462 381.109C69.787 381.109 70.0795 381.057 70.3395 380.953C70.5995 380.849 70.8227 380.702 71.009 380.511C71.1954 380.316 71.3384 380.085 71.438 379.816C71.5377 379.547 71.5875 379.246 71.5875 378.912C71.5875 378.622 71.5442 378.36 71.4575 378.126C71.3752 377.892 71.2474 377.693 71.074 377.528C70.905 377.363 70.6927 377.235 70.437 377.144C70.1814 377.053 69.8824 377.008 69.54 377.008C69.306 377.008 69.0612 377.027 68.8055 377.066C68.5542 377.105 68.2964 377.168 68.032 377.255L67.304 377.04L68.0515 372.685H72.465V373.192C72.465 373.357 72.413 373.494 72.309 373.602C72.2094 373.706 72.036 373.758 71.789 373.758H68.864L68.435 376.202ZM80.773 377.346C80.773 378.161 80.6842 378.867 80.5065 379.465C80.3332 380.059 80.0949 380.55 79.7915 380.94C79.4882 381.33 79.1285 381.621 78.7125 381.811C78.3009 382.002 77.8589 382.098 77.3865 382.098C76.9099 382.098 76.4657 382.002 76.054 381.811C75.6467 381.621 75.2914 381.33 74.988 380.94C74.6847 380.55 74.4464 380.059 74.273 379.465C74.0997 378.867 74.013 378.161 74.013 377.346C74.013 376.531 74.0997 375.825 74.273 375.227C74.4464 374.629 74.6847 374.135 74.988 373.745C75.2914 373.351 75.6467 373.058 76.054 372.867C76.4657 372.677 76.9099 372.581 77.3865 372.581C77.8589 372.581 78.3009 372.677 78.7125 372.867C79.1285 373.058 79.4882 373.351 79.7915 373.745C80.0949 374.135 80.3332 374.629 80.5065 375.227C80.6842 375.825 80.773 376.531 80.773 377.346ZM79.5705 377.346C79.5705 376.635 79.5099 376.039 79.3885 375.558C79.2715 375.073 79.1112 374.683 78.9075 374.388C78.7082 374.094 78.4764 373.884 78.212 373.758C77.9477 373.628 77.6725 373.563 77.3865 373.563C77.1005 373.563 76.8254 373.628 76.561 373.758C76.2967 373.884 76.0649 374.094 75.8655 374.388C75.6662 374.683 75.5059 375.073 75.3845 375.558C75.2675 376.039 75.209 376.635 75.209 377.346C75.209 378.057 75.2675 378.652 75.3845 379.133C75.5059 379.614 75.6662 380.002 75.8655 380.297C76.0649 380.592 76.2967 380.804 76.561 380.934C76.8254 381.06 77.1005 381.122 77.3865 381.122C77.6725 381.122 77.9477 381.06 78.212 380.934C78.4764 380.804 78.7082 380.592 78.9075 380.297C79.1112 380.002 79.2715 379.614 79.3885 379.133C79.5099 378.652 79.5705 378.057 79.5705 377.346Z" fill="black"/>
<path d="M131.866 381.116H133.868V374.765C133.868 374.575 133.874 374.382 133.887 374.187L132.223 375.61C132.18 375.645 132.136 375.671 132.093 375.688C132.05 375.701 132.009 375.708 131.97 375.708C131.905 375.708 131.846 375.695 131.794 375.669C131.742 375.639 131.703 375.604 131.677 375.565L131.313 375.064L134.082 372.666H135.025V381.116H136.858V382H131.866V381.116ZM141.305 382.104C140.841 382.104 140.416 382.043 140.031 381.922C139.645 381.796 139.313 381.619 139.036 381.389C138.759 381.159 138.544 380.882 138.393 380.557C138.241 380.228 138.165 379.859 138.165 379.452C138.165 378.854 138.321 378.362 138.633 377.976C138.945 377.586 139.391 377.309 139.972 377.144C139.482 376.962 139.112 376.692 138.861 376.332C138.614 375.968 138.49 375.535 138.49 375.032C138.49 374.69 138.557 374.369 138.692 374.07C138.826 373.771 139.017 373.511 139.264 373.29C139.511 373.069 139.805 372.896 140.148 372.77C140.494 372.644 140.88 372.581 141.305 372.581C141.725 372.581 142.108 372.644 142.455 372.77C142.802 372.896 143.099 373.069 143.346 373.29C143.593 373.511 143.783 373.771 143.918 374.07C144.052 374.369 144.119 374.69 144.119 375.032C144.119 375.535 143.993 375.968 143.742 376.332C143.491 376.692 143.122 376.962 142.637 377.144C143.218 377.309 143.664 377.586 143.976 377.976C144.288 378.362 144.444 378.854 144.444 379.452C144.444 379.859 144.366 380.228 144.21 380.557C144.058 380.882 143.844 381.159 143.567 381.389C143.294 381.619 142.964 381.796 142.579 381.922C142.193 382.043 141.768 382.104 141.305 382.104ZM141.305 381.181C141.608 381.181 141.879 381.14 142.117 381.057C142.36 380.971 142.563 380.852 142.728 380.7C142.897 380.544 143.025 380.36 143.112 380.147C143.203 379.931 143.248 379.692 143.248 379.432C143.248 379.112 143.194 378.839 143.086 378.613C142.982 378.384 142.839 378.197 142.657 378.054C142.479 377.911 142.273 377.807 142.039 377.742C141.805 377.673 141.56 377.638 141.305 377.638C141.049 377.638 140.804 377.673 140.57 377.742C140.336 377.807 140.128 377.911 139.946 378.054C139.768 378.197 139.625 378.384 139.517 378.613C139.413 378.839 139.361 379.112 139.361 379.432C139.361 379.692 139.404 379.931 139.491 380.147C139.582 380.36 139.71 380.544 139.875 380.7C140.044 380.852 140.247 380.971 140.486 381.057C140.728 381.14 141.001 381.181 141.305 381.181ZM141.305 376.709C141.608 376.709 141.866 376.663 142.078 376.572C142.295 376.477 142.47 376.354 142.605 376.202C142.739 376.046 142.836 375.868 142.897 375.669C142.958 375.47 142.988 375.264 142.988 375.051C142.988 374.835 142.951 374.631 142.878 374.44C142.808 374.25 142.702 374.083 142.559 373.94C142.42 373.797 142.245 373.684 142.033 373.602C141.825 373.52 141.582 373.478 141.305 373.478C141.027 373.478 140.782 373.52 140.57 373.602C140.362 373.684 140.187 373.797 140.044 373.94C139.905 374.083 139.799 374.25 139.725 374.44C139.656 374.631 139.621 374.835 139.621 375.051C139.621 375.264 139.651 375.47 139.712 375.669C139.773 375.868 139.87 376.046 140.005 376.202C140.139 376.354 140.312 376.477 140.525 376.572C140.741 376.663 141.001 376.709 141.305 376.709ZM152.232 377.346C152.232 378.161 152.143 378.867 151.966 379.465C151.792 380.059 151.554 380.55 151.251 380.94C150.947 381.33 150.588 381.621 150.172 381.811C149.76 382.002 149.318 382.098 148.846 382.098C148.369 382.098 147.925 382.002 147.513 381.811C147.106 381.621 146.75 381.33 146.447 380.94C146.144 380.55 145.905 380.059 145.732 379.465C145.559 378.867 145.472 378.161 145.472 377.346C145.472 376.531 145.559 375.825 145.732 375.227C145.905 374.629 146.144 374.135 146.447 373.745C146.75 373.351 147.106 373.058 147.513 372.867C147.925 372.677 148.369 372.581 148.846 372.581C149.318 372.581 149.76 372.677 150.172 372.867C150.588 373.058 150.947 373.351 151.251 373.745C151.554 374.135 151.792 374.629 151.966 375.227C152.143 375.825 152.232 376.531 152.232 377.346ZM151.03 377.346C151.03 376.635 150.969 376.039 150.848 375.558C150.731 375.073 150.57 374.683 150.367 374.388C150.167 374.094 149.935 373.884 149.671 373.758C149.407 373.628 149.132 373.563 148.846 373.563C148.56 373.563 148.284 373.628 148.02 373.758C147.756 373.884 147.524 374.094 147.325 374.388C147.125 374.683 146.965 375.073 146.844 375.558C146.727 376.039 146.668 376.635 146.668 377.346C146.668 378.057 146.727 378.652 146.844 379.133C146.965 379.614 147.125 380.002 147.325 380.297C147.524 380.592 147.756 380.804 148.02 380.934C148.284 381.06 148.56 381.122 148.846 381.122C149.132 381.122 149.407 381.06 149.671 380.934C149.935 380.804 150.167 380.592 150.367 380.297C150.57 380.002 150.731 379.614 150.848 379.133C150.969 378.652 151.03 378.057 151.03 377.346ZM159.773 377.346C159.773 378.161 159.684 378.867 159.507 379.465C159.333 380.059 159.095 380.55 158.792 380.94C158.488 381.33 158.129 381.621 157.713 381.811C157.301 382.002 156.859 382.098 156.387 382.098C155.91 382.098 155.466 382.002 155.054 381.811C154.647 381.621 154.291 381.33 153.988 380.94C153.685 380.55 153.446 380.059 153.273 379.465C153.1 378.867 153.013 378.161 153.013 377.346C153.013 376.531 153.1 375.825 153.273 375.227C153.446 374.629 153.685 374.135 153.988 373.745C154.291 373.351 154.647 373.058 155.054 372.867C155.466 372.677 155.91 372.581 156.387 372.581C156.859 372.581 157.301 372.677 157.713 372.867C158.129 373.058 158.488 373.351 158.792 373.745C159.095 374.135 159.333 374.629 159.507 375.227C159.684 375.825 159.773 376.531 159.773 377.346ZM158.571 377.346C158.571 376.635 158.51 376.039 158.389 375.558C158.272 375.073 158.111 374.683 157.908 374.388C157.708 374.094 157.476 373.884 157.212 373.758C156.948 373.628 156.673 373.563 156.387 373.563C156.101 373.563 155.825 373.628 155.561 373.758C155.297 373.884 155.065 374.094 154.866 374.388C154.666 374.683 154.506 375.073 154.385 375.558C154.268 376.039 154.209 376.635 154.209 377.346C154.209 378.057 154.268 378.652 154.385 379.133C154.506 379.614 154.666 380.002 154.866 380.297C155.065 380.592 155.297 380.804 155.561 380.934C155.825 381.06 156.101 381.122 156.387 381.122C156.673 381.122 156.948 381.06 157.212 380.934C157.476 380.804 157.708 380.592 157.908 380.297C158.111 380.002 158.272 379.614 158.389 379.133C158.51 378.652 158.571 378.057 158.571 377.346Z" fill="black"/>
<path d="M215.617 381.116V382H210.625V381.116H212.621V374.765C212.621 374.575 212.627 374.382 212.64 374.187L210.983 375.61C210.926 375.658 210.87 375.688 210.814 375.701C210.757 375.71 210.705 375.71 210.658 375.701C210.61 375.693 210.564 375.675 210.521 375.649C210.482 375.623 210.452 375.595 210.43 375.565L210.066 375.064L212.842 372.666H213.784V381.116H215.617ZM220.311 381.181C220.614 381.181 220.885 381.14 221.124 381.057C221.366 380.971 221.57 380.852 221.735 380.7C221.904 380.544 222.031 380.36 222.118 380.147C222.209 379.931 222.255 379.692 222.255 379.432C222.255 379.112 222.2 378.839 222.092 378.613C221.988 378.384 221.845 378.197 221.663 378.054C221.485 377.911 221.28 377.807 221.046 377.742C220.812 377.673 220.567 377.638 220.311 377.638C220.055 377.638 219.811 377.673 219.577 377.742C219.343 377.807 219.135 377.911 218.953 378.054C218.775 378.197 218.632 378.384 218.524 378.613C218.42 378.839 218.368 379.112 218.368 379.432C218.368 379.692 218.411 379.931 218.498 380.147C218.589 380.36 218.716 380.544 218.881 380.7C219.05 380.852 219.254 380.971 219.492 381.057C219.735 381.14 220.008 381.181 220.311 381.181ZM220.311 373.478C220.034 373.478 219.789 373.52 219.577 373.602C219.369 373.684 219.193 373.797 219.05 373.94C218.911 374.083 218.805 374.25 218.732 374.44C218.662 374.631 218.628 374.835 218.628 375.051C218.628 375.264 218.658 375.47 218.719 375.669C218.779 375.868 218.877 376.046 219.011 376.202C219.145 376.354 219.319 376.477 219.531 376.572C219.748 376.663 220.008 376.709 220.311 376.709C220.614 376.709 220.872 376.663 221.085 376.572C221.301 376.477 221.477 376.354 221.611 376.202C221.745 376.046 221.843 375.868 221.904 375.669C221.964 375.47 221.995 375.264 221.995 375.051C221.995 374.835 221.958 374.631 221.884 374.44C221.815 374.25 221.709 374.083 221.566 373.94C221.427 373.797 221.251 373.684 221.039 373.602C220.831 373.52 220.588 373.478 220.311 373.478ZM221.644 377.144C222.224 377.309 222.671 377.584 222.983 377.97C223.295 378.356 223.451 378.85 223.451 379.452C223.451 379.859 223.373 380.228 223.217 380.557C223.065 380.882 222.85 381.159 222.573 381.389C222.3 381.619 221.971 381.796 221.585 381.922C221.199 382.043 220.775 382.104 220.311 382.104C219.847 382.104 219.423 382.043 219.037 381.922C218.651 381.796 218.32 381.619 218.043 381.389C217.765 381.159 217.551 380.882 217.399 380.557C217.247 380.228 217.172 379.859 217.172 379.452C217.172 378.85 217.328 378.356 217.64 377.97C217.952 377.584 218.398 377.309 218.979 377.144C218.489 376.962 218.118 376.692 217.867 376.332C217.62 375.968 217.497 375.535 217.497 375.032C217.497 374.69 217.564 374.369 217.698 374.07C217.832 373.771 218.023 373.511 218.27 373.29C218.517 373.069 218.812 372.896 219.154 372.77C219.501 372.644 219.886 372.581 220.311 372.581C220.731 372.581 221.115 372.644 221.462 372.77C221.808 372.896 222.105 373.069 222.352 373.29C222.599 373.511 222.79 373.771 222.924 374.07C223.058 374.369 223.126 374.69 223.126 375.032C223.126 375.535 223 375.968 222.749 376.332C222.502 376.692 222.133 376.962 221.644 377.144ZM226.435 376.202C226.92 376.098 227.367 376.046 227.774 376.046C228.259 376.046 228.688 376.117 229.061 376.26C229.434 376.403 229.744 376.601 229.991 376.852C230.242 377.103 230.43 377.4 230.556 377.742C230.686 378.085 230.751 378.457 230.751 378.86C230.751 379.354 230.664 379.801 230.491 380.199C230.322 380.598 230.086 380.94 229.783 381.226C229.484 381.508 229.13 381.725 228.723 381.876C228.316 382.028 227.876 382.104 227.404 382.104C227.131 382.104 226.868 382.076 226.617 382.02C226.366 381.967 226.13 381.896 225.909 381.805C225.692 381.714 225.49 381.61 225.304 381.493C225.118 381.376 224.953 381.252 224.81 381.122L225.168 380.628C225.246 380.516 225.347 380.459 225.473 380.459C225.56 380.459 225.657 380.494 225.766 380.563C225.874 380.628 226.006 380.702 226.162 380.784C226.318 380.867 226.5 380.943 226.708 381.012C226.92 381.077 227.172 381.109 227.462 381.109C227.787 381.109 228.08 381.057 228.34 380.953C228.6 380.849 228.823 380.702 229.009 380.511C229.195 380.316 229.338 380.085 229.438 379.816C229.538 379.547 229.588 379.246 229.588 378.912C229.588 378.622 229.544 378.36 229.458 378.126C229.375 377.892 229.247 377.693 229.074 377.528C228.905 377.363 228.693 377.235 228.437 377.144C228.181 377.053 227.882 377.008 227.54 377.008C227.306 377.008 227.061 377.027 226.806 377.066C226.554 377.105 226.296 377.168 226.032 377.255L225.304 377.04L226.052 372.685H230.465V373.192C230.465 373.357 230.413 373.494 230.309 373.602C230.209 373.706 230.036 373.758 229.789 373.758H226.864L226.435 376.202ZM238.773 377.346C238.773 378.161 238.684 378.867 238.507 379.465C238.333 380.059 238.095 380.55 237.792 380.94C237.488 381.33 237.129 381.621 236.713 381.811C236.301 382.002 235.859 382.098 235.387 382.098C234.91 382.098 234.466 382.002 234.054 381.811C233.647 381.621 233.291 381.33 232.988 380.94C232.685 380.55 232.446 380.059 232.273 379.465C232.1 378.867 232.013 378.161 232.013 377.346C232.013 376.531 232.1 375.825 232.273 375.227C232.446 374.629 232.685 374.135 232.988 373.745C233.291 373.351 233.647 373.058 234.054 372.867C234.466 372.677 234.91 372.581 235.387 372.581C235.859 372.581 236.301 372.677 236.713 372.867C237.129 373.058 237.488 373.351 237.792 373.745C238.095 374.135 238.333 374.629 238.507 375.227C238.684 375.825 238.773 376.531 238.773 377.346ZM237.571 377.346C237.571 376.635 237.51 376.039 237.389 375.558C237.272 375.073 237.111 374.683 236.908 374.388C236.708 374.094 236.476 373.884 236.212 373.758C235.948 373.628 235.673 373.563 235.387 373.563C235.101 373.563 234.825 373.628 234.561 373.758C234.297 373.884 234.065 374.094 233.866 374.388C233.666 374.683 233.506 375.073 233.385 375.558C233.268 376.039 233.209 376.635 233.209 377.346C233.209 378.057 233.268 378.652 233.385 379.133C233.506 379.614 233.666 380.002 233.866 380.297C234.065 380.592 234.297 380.804 234.561 380.934C234.825 381.06 235.101 381.122 235.387 381.122C235.673 381.122 235.948 381.06 236.212 380.934C236.476 380.804 236.708 380.592 236.908 380.297C237.111 380.002 237.272 379.614 237.389 379.133C237.51 378.652 237.571 378.057 237.571 377.346Z" fill="black"/>
<path d="M294.617 381.116V382H289.625V381.116H291.621V374.765C291.621 374.575 291.627 374.382 291.64 374.187L289.983 375.61C289.926 375.658 289.87 375.688 289.814 375.701C289.757 375.71 289.705 375.71 289.658 375.701C289.61 375.693 289.564 375.675 289.521 375.649C289.482 375.623 289.452 375.595 289.43 375.565L289.066 375.064L291.842 372.666H292.784V381.116H294.617ZM297.381 375.422C297.381 375.717 297.422 375.981 297.504 376.215C297.591 376.445 297.712 376.64 297.868 376.8C298.028 376.96 298.221 377.082 298.447 377.164C298.676 377.246 298.932 377.287 299.214 377.287C299.526 377.287 299.801 377.238 300.039 377.138C300.282 377.034 300.485 376.897 300.65 376.728C300.815 376.559 300.94 376.364 301.027 376.143C301.114 375.922 301.157 375.693 301.157 375.454C301.157 375.164 301.109 374.902 301.014 374.668C300.923 374.43 300.795 374.228 300.631 374.063C300.466 373.899 300.269 373.773 300.039 373.686C299.814 373.595 299.565 373.55 299.292 373.55C299.006 373.55 298.746 373.598 298.512 373.693C298.278 373.784 298.076 373.912 297.907 374.076C297.738 374.241 297.608 374.438 297.517 374.668C297.426 374.898 297.381 375.149 297.381 375.422ZM300.085 378.288C300.18 378.163 300.269 378.044 300.351 377.931C300.433 377.818 300.511 377.706 300.585 377.593C300.347 377.784 300.078 377.929 299.779 378.028C299.48 378.128 299.164 378.178 298.83 378.178C298.479 378.178 298.145 378.119 297.829 378.002C297.517 377.885 297.242 377.714 297.004 377.489C296.765 377.259 296.575 376.98 296.432 376.65C296.293 376.317 296.224 375.935 296.224 375.506C296.224 375.099 296.299 374.718 296.451 374.362C296.603 374.007 296.815 373.697 297.088 373.433C297.361 373.169 297.686 372.961 298.063 372.809C298.44 372.657 298.854 372.581 299.305 372.581C299.751 372.581 300.156 372.655 300.52 372.802C300.884 372.95 301.196 373.156 301.456 373.42C301.716 373.684 301.915 374.001 302.054 374.369C302.197 374.737 302.269 375.145 302.269 375.591C302.269 375.86 302.243 376.115 302.191 376.358C302.143 376.596 302.071 376.832 301.976 377.066C301.885 377.296 301.772 377.526 301.638 377.755C301.504 377.981 301.352 378.213 301.183 378.451L298.915 381.727C298.858 381.809 298.778 381.876 298.674 381.928C298.57 381.976 298.451 382 298.317 382H297.251L300.085 378.288ZM310.232 377.346C310.232 378.161 310.143 378.867 309.966 379.465C309.792 380.059 309.554 380.55 309.251 380.94C308.947 381.33 308.588 381.621 308.172 381.811C307.76 382.002 307.318 382.098 306.846 382.098C306.369 382.098 305.925 382.002 305.513 381.811C305.106 381.621 304.75 381.33 304.447 380.94C304.144 380.55 303.905 380.059 303.732 379.465C303.559 378.867 303.472 378.161 303.472 377.346C303.472 376.531 303.559 375.825 303.732 375.227C303.905 374.629 304.144 374.135 304.447 373.745C304.75 373.351 305.106 373.058 305.513 372.867C305.925 372.677 306.369 372.581 306.846 372.581C307.318 372.581 307.76 372.677 308.172 372.867C308.588 373.058 308.947 373.351 309.251 373.745C309.554 374.135 309.792 374.629 309.966 375.227C310.143 375.825 310.232 376.531 310.232 377.346ZM309.03 377.346C309.03 376.635 308.969 376.039 308.848 375.558C308.731 375.073 308.57 374.683 308.367 374.388C308.167 374.094 307.935 373.884 307.671 373.758C307.407 373.628 307.132 373.563 306.846 373.563C306.56 373.563 306.284 373.628 306.02 373.758C305.756 373.884 305.524 374.094 305.325 374.388C305.125 374.683 304.965 375.073 304.844 375.558C304.727 376.039 304.668 376.635 304.668 377.346C304.668 378.057 304.727 378.652 304.844 379.133C304.965 379.614 305.125 380.002 305.325 380.297C305.524 380.592 305.756 380.804 306.02 380.934C306.284 381.06 306.56 381.122 306.846 381.122C307.132 381.122 307.407 381.06 307.671 380.934C307.935 380.804 308.167 380.592 308.367 380.297C308.57 380.002 308.731 379.614 308.848 379.133C308.969 378.652 309.03 378.057 309.03 377.346ZM317.773 377.346C317.773 378.161 317.684 378.867 317.507 379.465C317.333 380.059 317.095 380.55 316.792 380.94C316.488 381.33 316.129 381.621 315.713 381.811C315.301 382.002 314.859 382.098 314.387 382.098C313.91 382.098 313.466 382.002 313.054 381.811C312.647 381.621 312.291 381.33 311.988 380.94C311.685 380.55 311.446 380.059 311.273 379.465C311.1 378.867 311.013 378.161 311.013 377.346C311.013 376.531 311.1 375.825 311.273 375.227C311.446 374.629 311.685 374.135 311.988 373.745C312.291 373.351 312.647 373.058 313.054 372.867C313.466 372.677 313.91 372.581 314.387 372.581C314.859 372.581 315.301 372.677 315.713 372.867C316.129 373.058 316.488 373.351 316.792 373.745C317.095 374.135 317.333 374.629 317.507 375.227C317.684 375.825 317.773 376.531 317.773 377.346ZM316.571 377.346C316.571 376.635 316.51 376.039 316.389 375.558C316.272 375.073 316.111 374.683 315.908 374.388C315.708 374.094 315.476 373.884 315.212 373.758C314.948 373.628 314.673 373.563 314.387 373.563C314.101 373.563 313.825 373.628 313.561 373.758C313.297 373.884 313.065 374.094 312.866 374.388C312.666 374.683 312.506 375.073 312.385 375.558C312.268 376.039 312.209 376.635 312.209 377.346C312.209 378.057 312.268 378.652 312.385 379.133C312.506 379.614 312.666 380.002 312.866 380.297C313.065 380.592 313.297 380.804 313.561 380.934C313.825 381.06 314.101 381.122 314.387 381.122C314.673 381.122 314.948 381.06 315.212 380.934C315.476 380.804 315.708 380.592 315.908 380.297C316.111 380.002 316.272 379.614 316.389 379.133C316.51 378.652 316.571 378.057 316.571 377.346Z" fill="black"/>
<path d="M373.617 381.116V382H368.625V381.116H370.621V374.765C370.621 374.575 370.627 374.382 370.64 374.187L368.983 375.61C368.926 375.658 368.87 375.688 368.814 375.701C368.757 375.71 368.705 375.71 368.658 375.701C368.61 375.693 368.564 375.675 368.521 375.649C368.482 375.623 368.452 375.595 368.43 375.565L368.066 375.064L370.842 372.666H371.784V381.116H373.617ZM376.381 375.422C376.381 375.717 376.422 375.981 376.504 376.215C376.591 376.445 376.712 376.64 376.868 376.8C377.028 376.96 377.221 377.082 377.447 377.164C377.676 377.246 377.932 377.287 378.214 377.287C378.526 377.287 378.801 377.238 379.039 377.138C379.282 377.034 379.485 376.897 379.65 376.728C379.815 376.559 379.94 376.364 380.027 376.143C380.114 375.922 380.157 375.693 380.157 375.454C380.157 375.164 380.109 374.902 380.014 374.668C379.923 374.43 379.795 374.228 379.631 374.063C379.466 373.899 379.269 373.773 379.039 373.686C378.814 373.595 378.565 373.55 378.292 373.55C378.006 373.55 377.746 373.598 377.512 373.693C377.278 373.784 377.076 373.912 376.907 374.076C376.738 374.241 376.608 374.438 376.517 374.668C376.426 374.898 376.381 375.149 376.381 375.422ZM379.085 378.288C379.18 378.163 379.269 378.044 379.351 377.931C379.433 377.818 379.511 377.706 379.585 377.593C379.347 377.784 379.078 377.929 378.779 378.028C378.48 378.128 378.164 378.178 377.83 378.178C377.479 378.178 377.145 378.119 376.829 378.002C376.517 377.885 376.242 377.714 376.004 377.489C375.765 377.259 375.575 376.98 375.432 376.65C375.293 376.317 375.224 375.935 375.224 375.506C375.224 375.099 375.299 374.718 375.451 374.362C375.603 374.007 375.815 373.697 376.088 373.433C376.361 373.169 376.686 372.961 377.063 372.809C377.44 372.657 377.854 372.581 378.305 372.581C378.751 372.581 379.156 372.655 379.52 372.802C379.884 372.95 380.196 373.156 380.456 373.42C380.716 373.684 380.915 374.001 381.054 374.369C381.197 374.737 381.269 375.145 381.269 375.591C381.269 375.86 381.243 376.115 381.191 376.358C381.143 376.596 381.071 376.832 380.976 377.066C380.885 377.296 380.772 377.526 380.638 377.755C380.504 377.981 380.352 378.213 380.183 378.451L377.915 381.727C377.858 381.809 377.778 381.876 377.674 381.928C377.57 381.976 377.451 382 377.317 382H376.251L379.085 378.288ZM384.435 376.202C384.92 376.098 385.367 376.046 385.774 376.046C386.259 376.046 386.688 376.117 387.061 376.26C387.434 376.403 387.744 376.601 387.991 376.852C388.242 377.103 388.43 377.4 388.556 377.742C388.686 378.085 388.751 378.457 388.751 378.86C388.751 379.354 388.664 379.801 388.491 380.199C388.322 380.598 388.086 380.94 387.783 381.226C387.484 381.508 387.13 381.725 386.723 381.876C386.316 382.028 385.876 382.104 385.404 382.104C385.131 382.104 384.868 382.076 384.617 382.02C384.366 381.967 384.13 381.896 383.909 381.805C383.692 381.714 383.49 381.61 383.304 381.493C383.118 381.376 382.953 381.252 382.81 381.122L383.168 380.628C383.246 380.516 383.347 380.459 383.473 380.459C383.56 380.459 383.657 380.494 383.766 380.563C383.874 380.628 384.006 380.702 384.162 380.784C384.318 380.867 384.5 380.943 384.708 381.012C384.92 381.077 385.172 381.109 385.462 381.109C385.787 381.109 386.08 381.057 386.34 380.953C386.6 380.849 386.823 380.702 387.009 380.511C387.195 380.316 387.338 380.085 387.438 379.816C387.538 379.547 387.588 379.246 387.588 378.912C387.588 378.622 387.544 378.36 387.458 378.126C387.375 377.892 387.247 377.693 387.074 377.528C386.905 377.363 386.693 377.235 386.437 377.144C386.181 377.053 385.882 377.008 385.54 377.008C385.306 377.008 385.061 377.027 384.806 377.066C384.554 377.105 384.296 377.168 384.032 377.255L383.304 377.04L384.052 372.685H388.465V373.192C388.465 373.357 388.413 373.494 388.309 373.602C388.209 373.706 388.036 373.758 387.789 373.758H384.864L384.435 376.202ZM396.773 377.346C396.773 378.161 396.684 378.867 396.507 379.465C396.333 380.059 396.095 380.55 395.792 380.94C395.488 381.33 395.129 381.621 394.713 381.811C394.301 382.002 393.859 382.098 393.387 382.098C392.91 382.098 392.466 382.002 392.054 381.811C391.647 381.621 391.291 381.33 390.988 380.94C390.685 380.55 390.446 380.059 390.273 379.465C390.1 378.867 390.013 378.161 390.013 377.346C390.013 376.531 390.1 375.825 390.273 375.227C390.446 374.629 390.685 374.135 390.988 373.745C391.291 373.351 391.647 373.058 392.054 372.867C392.466 372.677 392.91 372.581 393.387 372.581C393.859 372.581 394.301 372.677 394.713 372.867C395.129 373.058 395.488 373.351 395.792 373.745C396.095 374.135 396.333 374.629 396.507 375.227C396.684 375.825 396.773 376.531 396.773 377.346ZM395.571 377.346C395.571 376.635 395.51 376.039 395.389 375.558C395.272 375.073 395.111 374.683 394.908 374.388C394.708 374.094 394.476 373.884 394.212 373.758C393.948 373.628 393.673 373.563 393.387 373.563C393.101 373.563 392.825 373.628 392.561 373.758C392.297 373.884 392.065 374.094 391.866 374.388C391.666 374.683 391.506 375.073 391.385 375.558C391.268 376.039 391.209 376.635 391.209 377.346C391.209 378.057 391.268 378.652 391.385 379.133C391.506 379.614 391.666 380.002 391.866 380.297C392.065 380.592 392.297 380.804 392.561 380.934C392.825 381.06 393.101 381.122 393.387 381.122C393.673 381.122 393.948 381.06 394.212 380.934C394.476 380.804 394.708 380.592 394.908 380.297C395.111 380.002 395.272 379.614 395.389 379.133C395.51 378.652 395.571 378.057 395.571 377.346Z" fill="black"/>
<path d="M452.416 380.901C452.541 380.901 452.641 380.938 452.714 381.012C452.788 381.086 452.825 381.181 452.825 381.298V382H446.611V381.603C446.611 381.521 446.628 381.437 446.663 381.35C446.698 381.263 446.752 381.183 446.826 381.109L449.809 378.113C450.056 377.862 450.281 377.621 450.485 377.391C450.689 377.157 450.862 376.923 451.005 376.689C451.148 376.455 451.259 376.219 451.337 375.981C451.415 375.738 451.454 375.48 451.454 375.207C451.454 374.934 451.41 374.696 451.324 374.492C451.237 374.284 451.118 374.113 450.966 373.979C450.819 373.845 450.643 373.745 450.44 373.68C450.236 373.611 450.017 373.576 449.783 373.576C449.545 373.576 449.326 373.611 449.127 373.68C448.927 373.749 448.75 373.847 448.594 373.972C448.442 374.094 448.314 374.239 448.21 374.408C448.106 374.577 448.032 374.763 447.989 374.967C447.937 375.119 447.866 375.22 447.775 375.272C447.688 375.32 447.564 375.333 447.404 375.311L446.8 375.207C446.86 374.783 446.977 374.408 447.151 374.083C447.328 373.754 447.549 373.478 447.814 373.257C448.082 373.036 448.388 372.87 448.73 372.757C449.072 372.64 449.443 372.581 449.842 372.581C450.236 372.581 450.604 372.64 450.947 372.757C451.289 372.874 451.586 373.045 451.837 373.27C452.088 373.491 452.286 373.762 452.429 374.083C452.572 374.404 452.643 374.768 452.643 375.175C452.643 375.522 452.591 375.844 452.487 376.143C452.383 376.438 452.242 376.72 452.065 376.988C451.887 377.257 451.681 377.519 451.447 377.775C451.217 378.031 450.973 378.288 450.713 378.548L448.256 381.057C448.429 381.01 448.604 380.973 448.782 380.947C448.96 380.917 449.131 380.901 449.296 380.901H452.416ZM460.691 377.346C460.691 378.161 460.602 378.867 460.425 379.465C460.251 380.059 460.013 380.55 459.71 380.94C459.406 381.33 459.047 381.621 458.631 381.811C458.219 382.002 457.777 382.098 457.305 382.098C456.828 382.098 456.384 382.002 455.972 381.811C455.565 381.621 455.209 381.33 454.906 380.94C454.603 380.55 454.364 380.059 454.191 379.465C454.018 378.867 453.931 378.161 453.931 377.346C453.931 376.531 454.018 375.825 454.191 375.227C454.364 374.629 454.603 374.135 454.906 373.745C455.209 373.351 455.565 373.058 455.972 372.867C456.384 372.677 456.828 372.581 457.305 372.581C457.777 372.581 458.219 372.677 458.631 372.867C459.047 373.058 459.406 373.351 459.71 373.745C460.013 374.135 460.251 374.629 460.425 375.227C460.602 375.825 460.691 376.531 460.691 377.346ZM459.489 377.346C459.489 376.635 459.428 376.039 459.307 375.558C459.19 375.073 459.029 374.683 458.826 374.388C458.626 374.094 458.394 373.884 458.13 373.758C457.866 373.628 457.591 373.563 457.305 373.563C457.019 373.563 456.743 373.628 456.479 373.758C456.215 373.884 455.983 374.094 455.784 374.388C455.584 374.683 455.424 375.073 455.303 375.558C455.186 376.039 455.127 376.635 455.127 377.346C455.127 378.057 455.186 378.652 455.303 379.133C455.424 379.614 455.584 380.002 455.784 380.297C455.983 380.592 456.215 380.804 456.479 380.934C456.743 381.06 457.019 381.122 457.305 381.122C457.591 381.122 457.866 381.06 458.13 380.934C458.394 380.804 458.626 380.592 458.826 380.297C459.029 380.002 459.19 379.614 459.307 379.133C459.428 378.652 459.489 378.057 459.489 377.346ZM468.232 377.346C468.232 378.161 468.143 378.867 467.966 379.465C467.792 380.059 467.554 380.55 467.251 380.94C466.947 381.33 466.588 381.621 466.172 381.811C465.76 382.002 465.318 382.098 464.846 382.098C464.369 382.098 463.925 382.002 463.513 381.811C463.106 381.621 462.75 381.33 462.447 380.94C462.144 380.55 461.905 380.059 461.732 379.465C461.559 378.867 461.472 378.161 461.472 377.346C461.472 376.531 461.559 375.825 461.732 375.227C461.905 374.629 462.144 374.135 462.447 373.745C462.75 373.351 463.106 373.058 463.513 372.867C463.925 372.677 464.369 372.581 464.846 372.581C465.318 372.581 465.76 372.677 466.172 372.867C466.588 373.058 466.947 373.351 467.251 373.745C467.554 374.135 467.792 374.629 467.966 375.227C468.143 375.825 468.232 376.531 468.232 377.346ZM467.03 377.346C467.03 376.635 466.969 376.039 466.848 375.558C466.731 375.073 466.57 374.683 466.367 374.388C466.167 374.094 465.935 373.884 465.671 373.758C465.407 373.628 465.132 373.563 464.846 373.563C464.56 373.563 464.284 373.628 464.02 373.758C463.756 373.884 463.524 374.094 463.325 374.388C463.125 374.683 462.965 375.073 462.844 375.558C462.727 376.039 462.668 376.635 462.668 377.346C462.668 378.057 462.727 378.652 462.844 379.133C462.965 379.614 463.125 380.002 463.325 380.297C463.524 380.592 463.756 380.804 464.02 380.934C464.284 381.06 464.56 381.122 464.846 381.122C465.132 381.122 465.407 381.06 465.671 380.934C465.935 380.804 466.167 380.592 466.367 380.297C466.57 380.002 466.731 379.614 466.848 379.133C466.969 378.652 467.03 378.057 467.03 377.346ZM475.773 377.346C475.773 378.161 475.684 378.867 475.507 379.465C475.333 380.059 475.095 380.55 474.792 380.94C474.488 381.33 474.129 381.621 473.713 381.811C473.301 382.002 472.859 382.098 472.387 382.098C471.91 382.098 471.466 382.002 471.054 381.811C470.647 381.621 470.291 381.33 469.988 380.94C469.685 380.55 469.446 380.059 469.273 379.465C469.1 378.867 469.013 378.161 469.013 377.346C469.013 376.531 469.1 375.825 469.273 375.227C469.446 374.629 469.685 374.135 469.988 373.745C470.291 373.351 470.647 373.058 471.054 372.867C471.466 372.677 471.91 372.581 472.387 372.581C472.859 372.581 473.301 372.677 473.713 372.867C474.129 373.058 474.488 373.351 474.792 373.745C475.095 374.135 475.333 374.629 475.507 375.227C475.684 375.825 475.773 376.531 475.773 377.346ZM474.571 377.346C474.571 376.635 474.51 376.039 474.389 375.558C474.272 375.073 474.111 374.683 473.908 374.388C473.708 374.094 473.476 373.884 473.212 373.758C472.948 373.628 472.673 373.563 472.387 373.563C472.101 373.563 471.825 373.628 471.561 373.758C471.297 373.884 471.065 374.094 470.866 374.388C470.666 374.683 470.506 375.073 470.385 375.558C470.268 376.039 470.209 376.635 470.209 377.346C470.209 378.057 470.268 378.652 470.385 379.133C470.506 379.614 470.666 380.002 470.866 380.297C471.065 380.592 471.297 380.804 471.561 380.934C471.825 381.06 472.101 381.122 472.387 381.122C472.673 381.122 472.948 381.06 473.212 380.934C473.476 380.804 473.708 380.592 473.908 380.297C474.111 380.002 474.272 379.614 474.389 379.133C474.51 378.652 474.571 378.057 474.571 377.346Z" fill="black"/>
<path d="M531.416 380.901C531.541 380.901 531.641 380.938 531.714 381.012C531.788 381.086 531.825 381.181 531.825 381.298V382H525.611V381.603C525.611 381.521 525.628 381.437 525.663 381.35C525.698 381.263 525.752 381.183 525.826 381.109L528.809 378.113C529.056 377.862 529.281 377.621 529.485 377.391C529.689 377.157 529.862 376.923 530.005 376.689C530.148 376.455 530.259 376.219 530.337 375.981C530.415 375.738 530.454 375.48 530.454 375.207C530.454 374.934 530.41 374.696 530.324 374.492C530.237 374.284 530.118 374.113 529.966 373.979C529.819 373.845 529.643 373.745 529.44 373.68C529.236 373.611 529.017 373.576 528.783 373.576C528.545 373.576 528.326 373.611 528.127 373.68C527.927 373.749 527.75 373.847 527.594 373.972C527.442 374.094 527.314 374.239 527.21 374.408C527.106 374.577 527.032 374.763 526.989 374.967C526.937 375.119 526.866 375.22 526.775 375.272C526.688 375.32 526.564 375.333 526.404 375.311L525.8 375.207C525.86 374.783 525.977 374.408 526.151 374.083C526.328 373.754 526.549 373.478 526.814 373.257C527.082 373.036 527.388 372.87 527.73 372.757C528.072 372.64 528.443 372.581 528.842 372.581C529.236 372.581 529.604 372.64 529.947 372.757C530.289 372.874 530.586 373.045 530.837 373.27C531.088 373.491 531.286 373.762 531.429 374.083C531.572 374.404 531.643 374.768 531.643 375.175C531.643 375.522 531.591 375.844 531.487 376.143C531.383 376.438 531.242 376.72 531.065 376.988C530.887 377.257 530.681 377.519 530.447 377.775C530.217 378.031 529.973 378.288 529.713 378.548L527.256 381.057C527.429 381.01 527.604 380.973 527.782 380.947C527.96 380.917 528.131 380.901 528.296 380.901H531.416ZM539.691 377.346C539.691 378.161 539.602 378.867 539.425 379.465C539.251 380.059 539.013 380.55 538.71 380.94C538.406 381.33 538.047 381.621 537.631 381.811C537.219 382.002 536.777 382.098 536.305 382.098C535.828 382.098 535.384 382.002 534.972 381.811C534.565 381.621 534.209 381.33 533.906 380.94C533.603 380.55 533.364 380.059 533.191 379.465C533.018 378.867 532.931 378.161 532.931 377.346C532.931 376.531 533.018 375.825 533.191 375.227C533.364 374.629 533.603 374.135 533.906 373.745C534.209 373.351 534.565 373.058 534.972 372.867C535.384 372.677 535.828 372.581 536.305 372.581C536.777 372.581 537.219 372.677 537.631 372.867C538.047 373.058 538.406 373.351 538.71 373.745C539.013 374.135 539.251 374.629 539.425 375.227C539.602 375.825 539.691 376.531 539.691 377.346ZM538.489 377.346C538.489 376.635 538.428 376.039 538.307 375.558C538.19 375.073 538.029 374.683 537.826 374.388C537.626 374.094 537.394 373.884 537.13 373.758C536.866 373.628 536.591 373.563 536.305 373.563C536.019 373.563 535.743 373.628 535.479 373.758C535.215 373.884 534.983 374.094 534.784 374.388C534.584 374.683 534.424 375.073 534.303 375.558C534.186 376.039 534.127 376.635 534.127 377.346C534.127 378.057 534.186 378.652 534.303 379.133C534.424 379.614 534.584 380.002 534.784 380.297C534.983 380.592 535.215 380.804 535.479 380.934C535.743 381.06 536.019 381.122 536.305 381.122C536.591 381.122 536.866 381.06 537.13 380.934C537.394 380.804 537.626 380.592 537.826 380.297C538.029 380.002 538.19 379.614 538.307 379.133C538.428 378.652 538.489 378.057 538.489 377.346ZM542.435 376.202C542.92 376.098 543.367 376.046 543.774 376.046C544.259 376.046 544.688 376.117 545.061 376.26C545.434 376.403 545.744 376.601 545.991 376.852C546.242 377.103 546.43 377.4 546.556 377.742C546.686 378.085 546.751 378.457 546.751 378.86C546.751 379.354 546.664 379.801 546.491 380.199C546.322 380.598 546.086 380.94 545.783 381.226C545.484 381.508 545.13 381.725 544.723 381.876C544.316 382.028 543.876 382.104 543.404 382.104C543.131 382.104 542.868 382.076 542.617 382.02C542.366 381.967 542.13 381.896 541.909 381.805C541.692 381.714 541.49 381.61 541.304 381.493C541.118 381.376 540.953 381.252 540.81 381.122L541.168 380.628C541.246 380.516 541.347 380.459 541.473 380.459C541.56 380.459 541.657 380.494 541.766 380.563C541.874 380.628 542.006 380.702 542.162 380.784C542.318 380.867 542.5 380.943 542.708 381.012C542.92 381.077 543.172 381.109 543.462 381.109C543.787 381.109 544.08 381.057 544.34 380.953C544.6 380.849 544.823 380.702 545.009 380.511C545.195 380.316 545.338 380.085 545.438 379.816C545.538 379.547 545.588 379.246 545.588 378.912C545.588 378.622 545.544 378.36 545.458 378.126C545.375 377.892 545.247 377.693 545.074 377.528C544.905 377.363 544.693 377.235 544.437 377.144C544.181 377.053 543.882 377.008 543.54 377.008C543.306 377.008 543.061 377.027 542.806 377.066C542.554 377.105 542.296 377.168 542.032 377.255L541.304 377.04L542.052 372.685H546.465V373.192C546.465 373.357 546.413 373.494 546.309 373.602C546.209 373.706 546.036 373.758 545.789 373.758H542.864L542.435 376.202ZM554.773 377.346C554.773 378.161 554.684 378.867 554.507 379.465C554.333 380.059 554.095 380.55 553.792 380.94C553.488 381.33 553.129 381.621 552.713 381.811C552.301 382.002 551.859 382.098 551.387 382.098C550.91 382.098 550.466 382.002 550.054 381.811C549.647 381.621 549.291 381.33 548.988 380.94C548.685 380.55 548.446 380.059 548.273 379.465C548.1 378.867 548.013 378.161 548.013 377.346C548.013 376.531 548.1 375.825 548.273 375.227C548.446 374.629 548.685 374.135 548.988 373.745C549.291 373.351 549.647 373.058 550.054 372.867C550.466 372.677 550.91 372.581 551.387 372.581C551.859 372.581 552.301 372.677 552.713 372.867C553.129 373.058 553.488 373.351 553.792 373.745C554.095 374.135 554.333 374.629 554.507 375.227C554.684 375.825 554.773 376.531 554.773 377.346ZM553.571 377.346C553.571 376.635 553.51 376.039 553.389 375.558C553.272 375.073 553.111 374.683 552.908 374.388C552.708 374.094 552.476 373.884 552.212 373.758C551.948 373.628 551.673 373.563 551.387 373.563C551.101 373.563 550.825 373.628 550.561 373.758C550.297 373.884 550.065 374.094 549.866 374.388C549.666 374.683 549.506 375.073 549.385 375.558C549.268 376.039 549.209 376.635 549.209 377.346C549.209 378.057 549.268 378.652 549.385 379.133C549.506 379.614 549.666 380.002 549.866 380.297C550.065 380.592 550.297 380.804 550.561 380.934C550.825 381.06 551.101 381.122 551.387 381.122C551.673 381.122 551.948 381.06 552.212 380.934C552.476 380.804 552.708 380.592 552.908 380.297C553.111 380.002 553.272 379.614 553.389 379.133C553.51 378.652 553.571 378.057 553.571 377.346Z" fill="black"/>
<path d="M323.227 296.344C394.699 256.725 449.455 163.87 504.153 104.231" stroke="#E0E0E0" stroke-width="3"/>
<path d="M495.082 118.32C526.382 71.9839 535.489 36.9612 553.43 4.04165" stroke="#E0E0E0" stroke-width="3"/>
<path d="M556.5 359.5L559 7L548 17.5L543 28.5L532.5 52.5L526.5 66L521 77L518 82.5L516.5 86L513 92L508 100.5L505.5 104.5L503 108.5L486 127L445.5 178.5L424 205.5L404.5 229L367.5 267L347 283L335.5 290.5L327 297L309.5 303.5L282.5 307L247 313.5L169 322.5L50.5 328.5V359.5H556.5Z" fill="#C4C4C4"/>
<path d="M320.617 325.116V326H315.625V325.116H317.621V318.765C317.621 318.575 317.627 318.382 317.64 318.187L315.983 319.61C315.926 319.658 315.87 319.688 315.814 319.701C315.757 319.71 315.705 319.71 315.658 319.701C315.61 319.693 315.564 319.675 315.521 319.649C315.482 319.623 315.452 319.595 315.43 319.565L315.066 319.064L317.842 316.666H318.784V325.116H320.617ZM322.263 325.285C322.263 325.172 322.282 325.066 322.321 324.966C322.364 324.867 322.421 324.78 322.49 324.706C322.564 324.633 322.65 324.574 322.75 324.531C322.85 324.488 322.956 324.466 323.069 324.466C323.181 324.466 323.287 324.488 323.387 324.531C323.487 324.574 323.573 324.633 323.647 324.706C323.721 324.78 323.779 324.867 323.823 324.966C323.866 325.066 323.888 325.172 323.888 325.285C323.888 325.402 323.866 325.51 323.823 325.61C323.779 325.705 323.721 325.79 323.647 325.863C323.573 325.937 323.487 325.993 323.387 326.033C323.287 326.076 323.181 326.098 323.069 326.098C322.956 326.098 322.85 326.076 322.75 326.033C322.65 325.993 322.564 325.937 322.49 325.863C322.421 325.79 322.364 325.705 322.321 325.61C322.282 325.51 322.263 325.402 322.263 325.285ZM328.383 325.181C328.687 325.181 328.957 325.14 329.196 325.057C329.438 324.971 329.642 324.852 329.807 324.7C329.976 324.544 330.104 324.36 330.19 324.147C330.281 323.931 330.327 323.692 330.327 323.432C330.327 323.112 330.273 322.839 330.164 322.613C330.06 322.384 329.917 322.197 329.735 322.054C329.558 321.911 329.352 321.807 329.118 321.742C328.884 321.673 328.639 321.638 328.383 321.638C328.128 321.638 327.883 321.673 327.649 321.742C327.415 321.807 327.207 321.911 327.025 322.054C326.847 322.197 326.704 322.384 326.596 322.613C326.492 322.839 326.44 323.112 326.44 323.432C326.44 323.692 326.483 323.931 326.57 324.147C326.661 324.36 326.789 324.544 326.953 324.7C327.122 324.852 327.326 324.971 327.564 325.057C327.807 325.14 328.08 325.181 328.383 325.181ZM328.383 317.478C328.106 317.478 327.861 317.52 327.649 317.602C327.441 317.684 327.265 317.797 327.122 317.94C326.984 318.083 326.877 318.25 326.804 318.44C326.734 318.631 326.7 318.835 326.7 319.051C326.7 319.264 326.73 319.47 326.791 319.669C326.851 319.868 326.949 320.046 327.083 320.202C327.218 320.354 327.391 320.477 327.603 320.572C327.82 320.663 328.08 320.709 328.383 320.709C328.687 320.709 328.944 320.663 329.157 320.572C329.373 320.477 329.549 320.354 329.683 320.202C329.818 320.046 329.915 319.868 329.976 319.669C330.036 319.47 330.067 319.264 330.067 319.051C330.067 318.835 330.03 318.631 329.956 318.44C329.887 318.25 329.781 318.083 329.638 317.94C329.499 317.797 329.324 317.684 329.111 317.602C328.903 317.52 328.661 317.478 328.383 317.478ZM329.716 321.144C330.296 321.309 330.743 321.584 331.055 321.97C331.367 322.356 331.523 322.85 331.523 323.452C331.523 323.859 331.445 324.228 331.289 324.557C331.137 324.882 330.923 325.159 330.645 325.389C330.372 325.619 330.043 325.796 329.657 325.922C329.272 326.043 328.847 326.104 328.383 326.104C327.92 326.104 327.495 326.043 327.109 325.922C326.724 325.796 326.392 325.619 326.115 325.389C325.837 325.159 325.623 324.882 325.471 324.557C325.32 324.228 325.244 323.859 325.244 323.452C325.244 322.85 325.4 322.356 325.712 321.97C326.024 321.584 326.47 321.309 327.051 321.144C326.561 320.962 326.191 320.692 325.939 320.332C325.692 319.968 325.569 319.535 325.569 319.032C325.569 318.69 325.636 318.369 325.77 318.07C325.905 317.771 326.095 317.511 326.342 317.29C326.589 317.069 326.884 316.896 327.226 316.77C327.573 316.644 327.959 316.581 328.383 316.581C328.804 316.581 329.187 316.644 329.534 316.77C329.88 316.896 330.177 317.069 330.424 317.29C330.671 317.511 330.862 317.771 330.996 318.07C331.131 318.369 331.198 318.69 331.198 319.032C331.198 319.535 331.072 319.968 330.821 320.332C330.574 320.692 330.205 320.962 329.716 321.144Z" fill="white"/>
<path d="M494.027 132.685V133.205C494.027 133.353 494.009 133.474 493.975 133.569C493.944 133.665 493.914 133.745 493.884 133.81L490.023 141.59C489.966 141.703 489.888 141.801 489.789 141.883C489.689 141.961 489.557 142 489.392 142H488.56L492.473 134.317C492.529 134.209 492.588 134.109 492.649 134.018C492.709 133.927 492.774 133.84 492.844 133.758H487.982C487.908 133.758 487.843 133.73 487.787 133.673C487.73 133.613 487.702 133.546 487.702 133.472V132.685H494.027ZM495.263 141.285C495.263 141.172 495.282 141.066 495.321 140.966C495.364 140.867 495.421 140.78 495.49 140.706C495.564 140.633 495.65 140.574 495.75 140.531C495.85 140.488 495.956 140.466 496.069 140.466C496.181 140.466 496.287 140.488 496.387 140.531C496.487 140.574 496.573 140.633 496.647 140.706C496.721 140.78 496.779 140.867 496.823 140.966C496.866 141.066 496.888 141.172 496.888 141.285C496.888 141.402 496.866 141.51 496.823 141.61C496.779 141.705 496.721 141.79 496.647 141.863C496.573 141.937 496.487 141.993 496.387 142.033C496.287 142.076 496.181 142.098 496.069 142.098C495.956 142.098 495.85 142.076 495.75 142.033C495.65 141.993 495.564 141.937 495.49 141.863C495.421 141.79 495.364 141.705 495.321 141.61C495.282 141.51 495.263 141.402 495.263 141.285ZM498.458 135.207C498.519 134.783 498.636 134.408 498.809 134.083C498.983 133.754 499.201 133.478 499.466 133.257C499.734 133.036 500.04 132.87 500.382 132.757C500.729 132.64 501.102 132.581 501.5 132.581C501.895 132.581 502.259 132.638 502.592 132.75C502.926 132.863 503.212 133.023 503.45 133.231C503.693 133.439 503.881 133.691 504.016 133.985C504.15 134.28 504.217 134.607 504.217 134.967C504.217 135.262 504.178 135.526 504.1 135.76C504.027 135.99 503.918 136.191 503.775 136.364C503.637 136.538 503.468 136.685 503.268 136.806C503.069 136.928 502.846 137.027 502.599 137.105C503.205 137.261 503.66 137.53 503.964 137.911C504.271 138.288 504.425 138.761 504.425 139.328C504.425 139.757 504.343 140.143 504.178 140.485C504.018 140.828 503.797 141.12 503.515 141.363C503.234 141.601 502.904 141.785 502.527 141.915C502.155 142.041 501.754 142.104 501.325 142.104C500.831 142.104 500.408 142.043 500.057 141.922C499.706 141.796 499.409 141.625 499.167 141.408C498.924 141.192 498.725 140.936 498.569 140.641C498.413 140.342 498.281 140.02 498.172 139.673L498.673 139.465C498.803 139.409 498.928 139.393 499.05 139.419C499.175 139.445 499.266 139.517 499.323 139.634C499.379 139.755 499.448 139.9 499.531 140.069C499.617 140.238 499.734 140.401 499.882 140.557C500.029 140.713 500.215 140.845 500.441 140.953C500.67 141.062 500.961 141.116 501.312 141.116C501.637 141.116 501.921 141.064 502.163 140.96C502.41 140.852 502.614 140.713 502.774 140.544C502.939 140.375 503.062 140.186 503.145 139.978C503.227 139.77 503.268 139.565 503.268 139.361C503.268 139.11 503.236 138.88 503.171 138.672C503.106 138.464 502.984 138.284 502.807 138.132C502.629 137.981 502.384 137.862 502.072 137.775C501.765 137.688 501.368 137.645 500.883 137.645V136.806C501.281 136.802 501.619 136.759 501.897 136.676C502.178 136.594 502.406 136.481 502.579 136.338C502.757 136.195 502.885 136.024 502.963 135.825C503.045 135.626 503.086 135.405 503.086 135.162C503.086 134.893 503.043 134.659 502.956 134.46C502.874 134.261 502.759 134.096 502.612 133.966C502.464 133.836 502.289 133.738 502.085 133.673C501.886 133.608 501.669 133.576 501.435 133.576C501.201 133.576 500.982 133.611 500.779 133.68C500.579 133.749 500.402 133.847 500.246 133.972C500.094 134.094 499.966 134.239 499.862 134.408C499.758 134.577 499.685 134.763 499.641 134.967C499.585 135.119 499.513 135.22 499.427 135.272C499.344 135.32 499.223 135.333 499.063 135.311L498.458 135.207Z" fill="white"/>
<path d="M542.84 35.422C542.84 35.7167 542.881 35.981 542.963 36.215C543.05 36.4447 543.171 36.6397 543.327 36.8C543.487 36.9603 543.68 37.0817 543.906 37.164C544.135 37.2463 544.391 37.2875 544.672 37.2875C544.985 37.2875 545.26 37.2377 545.498 37.138C545.741 37.034 545.944 36.8975 546.109 36.7285C546.274 36.5595 546.399 36.3645 546.486 36.1435C546.573 35.9225 546.616 35.6928 546.616 35.4545C546.616 35.1642 546.568 34.902 546.473 34.668C546.382 34.4297 546.254 34.2282 546.09 34.0635C545.925 33.8988 545.728 33.7732 545.498 33.6865C545.273 33.5955 545.024 33.55 544.751 33.55C544.465 33.55 544.205 33.5977 543.971 33.693C543.737 33.784 543.535 33.9118 543.366 34.0765C543.197 34.2412 543.067 34.4383 542.976 34.668C542.885 34.8977 542.84 35.149 542.84 35.422ZM545.544 38.2885C545.639 38.1628 545.728 38.0437 545.81 37.931C545.892 37.8183 545.97 37.7057 546.044 37.593C545.806 37.7837 545.537 37.9288 545.238 38.0285C544.939 38.1282 544.623 38.178 544.289 38.178C543.938 38.178 543.604 38.1195 543.288 38.0025C542.976 37.8855 542.701 37.7143 542.463 37.489C542.224 37.2593 542.034 36.9798 541.891 36.6505C541.752 36.3168 541.683 35.9355 541.683 35.5065C541.683 35.0992 541.758 34.7178 541.91 34.3625C542.062 34.0072 542.274 33.6973 542.547 33.433C542.82 33.1687 543.145 32.9607 543.522 32.809C543.899 32.6573 544.313 32.5815 544.764 32.5815C545.21 32.5815 545.615 32.6552 545.979 32.8025C546.343 32.9498 546.655 33.1557 546.915 33.42C547.175 33.6843 547.374 34.0007 547.513 34.369C547.656 34.7373 547.728 35.1447 547.728 35.591C547.728 35.8597 547.702 36.1153 547.65 36.358C547.602 36.5963 547.53 36.8325 547.435 37.0665C547.344 37.2962 547.231 37.5258 547.097 37.7555C546.963 37.9808 546.811 38.2127 546.642 38.451L544.374 41.727C544.317 41.8093 544.237 41.8765 544.133 41.9285C544.029 41.9762 543.91 42 543.776 42H542.71L545.544 38.2885ZM549.263 41.285C549.263 41.1723 549.282 41.0662 549.321 40.9665C549.364 40.8668 549.421 40.7802 549.49 40.7065C549.564 40.6328 549.65 40.5743 549.75 40.531C549.85 40.4877 549.956 40.466 550.069 40.466C550.181 40.466 550.287 40.4877 550.387 40.531C550.487 40.5743 550.573 40.6328 550.647 40.7065C550.721 40.7802 550.779 40.8668 550.823 40.9665C550.866 41.0662 550.888 41.1723 550.888 41.285C550.888 41.402 550.866 41.5103 550.823 41.61C550.779 41.7053 550.721 41.7898 550.647 41.8635C550.573 41.9372 550.487 41.9935 550.387 42.0325C550.287 42.0758 550.181 42.0975 550.069 42.0975C549.956 42.0975 549.85 42.0758 549.75 42.0325C549.65 41.9935 549.564 41.9372 549.49 41.8635C549.421 41.7898 549.364 41.7053 549.321 41.61C549.282 41.5103 549.263 41.402 549.263 41.285ZM552.458 35.2075C552.519 34.7828 552.636 34.408 552.809 34.083C552.983 33.7537 553.201 33.4785 553.466 33.2575C553.734 33.0365 554.04 32.8697 554.382 32.757C554.729 32.64 555.102 32.5815 555.5 32.5815C555.895 32.5815 556.259 32.6378 556.592 32.7505C556.926 32.8632 557.212 33.0235 557.45 33.2315C557.693 33.4395 557.881 33.6908 558.016 33.9855C558.15 34.2802 558.217 34.6073 558.217 34.967C558.217 35.2617 558.178 35.526 558.1 35.76C558.027 35.9897 557.918 36.1912 557.775 36.3645C557.637 36.5378 557.468 36.6852 557.268 36.8065C557.069 36.9278 556.846 37.0275 556.599 37.1055C557.205 37.2615 557.66 37.5302 557.964 37.9115C558.271 38.2885 558.425 38.7608 558.425 39.3285C558.425 39.7575 558.343 40.1432 558.178 40.4855C558.018 40.8278 557.797 41.1203 557.515 41.363C557.234 41.6013 556.904 41.7855 556.527 41.9155C556.155 42.0412 555.754 42.104 555.325 42.104C554.831 42.104 554.408 42.0433 554.057 41.922C553.706 41.7963 553.409 41.6252 553.167 41.4085C552.924 41.1918 552.725 40.9362 552.569 40.6415C552.413 40.3425 552.281 40.0197 552.172 39.673L552.673 39.465C552.803 39.4087 552.928 39.3935 553.05 39.4195C553.175 39.4455 553.266 39.517 553.323 39.634C553.379 39.7553 553.448 39.9005 553.531 40.0695C553.617 40.2385 553.734 40.401 553.882 40.557C554.029 40.713 554.215 40.8452 554.441 40.9535C554.67 41.0618 554.961 41.116 555.312 41.116C555.637 41.116 555.921 41.064 556.163 40.96C556.41 40.8517 556.614 40.713 556.774 40.544C556.939 40.375 557.062 40.1865 557.145 39.9785C557.227 39.7705 557.268 39.5647 557.268 39.361C557.268 39.1097 557.236 38.88 557.171 38.672C557.106 38.464 556.984 38.2842 556.807 38.1325C556.629 37.9808 556.384 37.8617 556.072 37.775C555.765 37.6883 555.368 37.645 554.883 37.645V36.8065C555.281 36.8022 555.619 36.7588 555.897 36.6765C556.178 36.5942 556.406 36.4815 556.579 36.3385C556.757 36.1955 556.885 36.0243 556.963 35.825C557.045 35.6257 557.086 35.4047 557.086 35.162C557.086 34.8933 557.043 34.6593 556.956 34.46C556.874 34.2607 556.759 34.096 556.612 33.966C556.464 33.836 556.289 33.7385 556.085 33.6735C555.886 33.6085 555.669 33.576 555.435 33.576C555.201 33.576 554.982 33.6107 554.779 33.68C554.579 33.7493 554.402 33.8468 554.246 33.9725C554.094 34.0938 553.966 34.239 553.862 34.408C553.758 34.577 553.685 34.7633 553.641 34.967C553.585 35.1187 553.513 35.2205 553.427 35.2725C553.344 35.3202 553.223 35.3332 553.063 35.3115L552.458 35.2075Z" fill="white"/>
<circle cx="322" cy="301" r="9" fill="#5A2D8F"/>
<circle cx="494" cy="114" r="9" fill="#5A2D8F"/>
<circle cx="550" cy="9" r="9" fill="#5A2D8F"/>
<line x1="44" y1="298.5" x2="67" y2="298.5" stroke="#82BD09"/>
<line x1="76" y1="298.5" x2="99" y2="298.5" stroke="#82BD09"/>
<line x1="113" y1="298.5" x2="136" y2="298.5" stroke="#82BD09"/>
<line x1="76" y1="298.5" x2="99" y2="298.5" stroke="#82BD09"/>
<line x1="149" y1="298.5" x2="172" y2="298.5" stroke="#82BD09"/>
<line x1="186" y1="298.5" x2="209" y2="298.5" stroke="#82BD09"/>
<line x1="220" y1="298.5" x2="243" y2="298.5" stroke="#82BD09"/>
<line x1="257" y1="298.5" x2="280" y2="298.5" stroke="#82BD09"/>
<line x1="288" y1="298.5" x2="311" y2="298.5" stroke="#82BD09"/>
<line x1="220" y1="298.5" x2="243" y2="298.5" stroke="#82BD09"/>
<line x1="76" y1="298.5" x2="99" y2="298.5" stroke="#82BD09"/>
<line x1="44" y1="113.5" x2="67" y2="113.5" stroke="#82BD09"/>
<line x1="76" y1="113.5" x2="99" y2="113.5" stroke="#82BD09"/>
<line x1="113" y1="113.5" x2="136" y2="113.5" stroke="#82BD09"/>
<line x1="76" y1="113.5" x2="99" y2="113.5" stroke="#82BD09"/>
<line x1="149" y1="113.5" x2="172" y2="113.5" stroke="#82BD09"/>
<line x1="186" y1="113.5" x2="209" y2="113.5" stroke="#82BD09"/>
<line x1="257" y1="113.5" x2="280" y2="113.5" stroke="#82BD09"/>
<line x1="288" y1="113.5" x2="311" y2="113.5" stroke="#82BD09"/>
<line x1="220" y1="113.5" x2="243" y2="113.5" stroke="#82BD09"/>
<line x1="322" y1="113.5" x2="345" y2="113.5" stroke="#82BD09"/>
<line x1="359" y1="113.5" x2="382" y2="113.5" stroke="#82BD09"/>
<line x1="430" y1="113.5" x2="453" y2="113.5" stroke="#82BD09"/>
<line x1="461" y1="113.5" x2="484" y2="113.5" stroke="#82BD09"/>
<line x1="393" y1="113.5" x2="416" y2="113.5" stroke="#82BD09"/>
<line x1="76" y1="113.5" x2="99" y2="113.5" stroke="#82BD09"/>
<line x1="44" y1="7.5" x2="67" y2="7.5" stroke="#82BD09"/>
<line x1="76" y1="7.5" x2="99" y2="7.5" stroke="#82BD09"/>
<line x1="113" y1="7.5" x2="136" y2="7.5" stroke="#82BD09"/>
<line x1="76" y1="7.5" x2="99" y2="7.5" stroke="#82BD09"/>
<line x1="149" y1="7.5" x2="172" y2="7.5" stroke="#82BD09"/>
<line x1="186" y1="7.5" x2="209" y2="7.5" stroke="#82BD09"/>
<line x1="257" y1="7.5" x2="280" y2="7.5" stroke="#82BD09"/>
<line x1="288" y1="7.5" x2="311" y2="7.5" stroke="#82BD09"/>
<line x1="220" y1="7.5" x2="243" y2="7.5" stroke="#82BD09"/>
<line x1="322" y1="7.5" x2="345" y2="7.5" stroke="#82BD09"/>
<line x1="359" y1="7.5" x2="382" y2="7.5" stroke="#82BD09"/>
<line x1="430" y1="7.5" x2="453" y2="7.5" stroke="#82BD09"/>
<line x1="461" y1="7.5" x2="484" y2="7.5" stroke="#82BD09"/>
<line x1="393" y1="7.5" x2="416" y2="7.5" stroke="#82BD09"/>
<line x1="527" y1="7.5" x2="541" y2="7.5" stroke="#82BD09"/>
<line x1="494" y1="7.5" x2="517" y2="7.5" stroke="#82BD09"/>
<line x1="76" y1="7.5" x2="99" y2="7.5" stroke="#82BD09"/>
</svg>
