<svg width="13" height="9" viewBox="0 0 13 9" fill="none" xmlns="http://www.w3.org/2000/svg">
<path d="M12.5938 8.54297H0.611328V4.70508H1.8125C1.86689 4.70508 1.91905 4.68347 1.95751 4.64501C1.99597 4.60655 2.01758 4.55439 2.01758 4.5C2.01758 4.44561 1.99597 4.39345 1.95751 4.35499C1.91905 4.31653 1.86689 4.29492 1.8125 4.29492H0.611328V0.457031H7.99414C8.04853 0.457031 8.10069 0.435425 8.13915 0.396965C8.17761 0.358506 8.19922 0.306343 8.19922 0.251953C8.19922 0.197563 8.17761 0.145401 8.13915 0.106941C8.10069 0.0684815 8.04853 0.046875 7.99414 0.046875H0.40625C0.379314 0.0468596 0.35264 0.0521535 0.327752 0.0624542C0.302864 0.0727549 0.28025 0.0878603 0.261204 0.106907C0.242157 0.125953 0.227052 0.148567 0.216751 0.173455C0.206451 0.198343 0.201157 0.225018 0.201172 0.251953V8.74805C0.201157 8.77498 0.206451 8.80166 0.216751 8.82655C0.227052 8.85143 0.242157 8.87405 0.261204 8.89309C0.28025 8.91214 0.302864 8.92725 0.327752 8.93755C0.35264 8.94785 0.379314 8.95314 0.40625 8.95312H12.5938C12.6481 8.95312 12.7003 8.93152 12.7388 8.89306C12.7772 8.8546 12.7988 8.80244 12.7988 8.74805C12.7988 8.69366 12.7772 8.64149 12.7388 8.60303C12.7003 8.56458 12.6481 8.54297 12.5938 8.54297Z" fill="#828282"/>
</svg>
